<?xml version="1.0" standalone="no"?>
<!DOCTYPE svg PUBLIC "-//W3C//DTD SVG 1.1//EN" "http://www.w3.org/Graphics/SVG/1.1/DTD/svg11.dtd" >
<svg xmlns="http://www.w3.org/2000/svg">
<metadata></metadata>
<defs>
<font id="signikalight" horiz-adv-x="1085" >
<font-face units-per-em="2048" ascent="1638" descent="-410" />
<missing-glyph horiz-adv-x="450" />
<glyph horiz-adv-x="0" />
<glyph horiz-adv-x="0" />
<glyph horiz-adv-x="682" />
<glyph unicode="&#xd;" horiz-adv-x="380" />
<glyph unicode=" "  horiz-adv-x="450" />
<glyph unicode="&#x09;" horiz-adv-x="450" />
<glyph unicode="&#xa0;" horiz-adv-x="450" />
<glyph unicode="!" horiz-adv-x="567" d="M172 88q0 58 14 82q44 23 97 23q58 0 96 -23q14 -25 14 -82q0 -58 -14 -82q-33 -20 -96 -20q-59 0 -97 20q-14 24 -14 82zM207 1366q61 45 164 45l10 -10l-39 -1020q-21 -8 -59 -8t-62 8z" />
<glyph unicode="&#x22;" horiz-adv-x="727" d="M102 1423q0 37 13 84q35 23 86 23q53 0 88 -23q12 -44 12 -84q0 -11 -9 -58.5t-23.5 -133.5t-24.5 -172q-14 -9 -40.5 -9t-45.5 9q-9 87 -23 172.5t-23.5 133.5t-9.5 58zM428 1423q0 41 12 84q34 23 86 23q54 0 88 -23q13 -47 13 -84q0 -11 -9.5 -58.5t-24 -133.5 t-24.5 -172q-14 -9 -40.5 -9t-45.5 9q-9 87 -22.5 172.5t-23 133.5t-9.5 58z" />
<glyph unicode="#" horiz-adv-x="1239" d="M52 408.5q0 40.5 11 66.5h248l84 373h-241q-9 26 -9 66.5t9 66.5h270l72 313q28 9 71.5 9t71.5 -9l-72 -313h264l72 313q28 9 72 9t72 -9l-72 -313h207q9 -26 9 -66.5t-9 -66.5h-236l-84 -373h228q10 -26 10 -66.5t-10 -66.5h-259l-69 -313q-25 -12 -70.5 -12t-70.5 12 l69 313h-266l-70 -313q-25 -12 -71.5 -12t-71.5 12l70 313h-218q-11 26 -11 66.5zM455 475h264l84 373h-264z" />
<glyph unicode="$" horiz-adv-x="1011" d="M80 207q1 32 20.5 67.5t44.5 55.5q200 -117 375 -117q102 0 170 43t68 123q0 65 -49 116.5t-131 82.5l-211 75q-122 45 -181 113t-59 168q0 115 78.5 197.5t216.5 103.5v172q21 6 67 6q44 0 68 -6v-168q158 -10 317 -86q0 -34 -15.5 -67.5t-41.5 -55.5q-73 36 -157.5 57 t-157.5 21q-100 0 -160.5 -43.5t-60.5 -120.5q0 -58 38.5 -91t126.5 -65l205 -73q116 -41 190 -122t74 -190q0 -140 -96 -228.5t-270 -94.5v-158q-32 -4 -68 -4q-39 0 -67 4v164q-192 24 -334 121z" />
<glyph unicode="%" horiz-adv-x="1763" d="M102 1018q0 224 97 323q76 82 209 82q134 0 210 -82q97 -99 97 -323t-97 -326q-82 -82 -210 -82q-127 0 -209 82q-97 102 -97 326zM242 1018q0 -299 168 -299q165 0 165 299q0 297 -165 297q-168 0 -168 -297zM420 0l772 1399q25 11 75.5 11t75.5 -11l-770 -1399 q-26 -10 -77 -10t-76 10zM1049 383q0 226 96 324q78 81 209 81q136 0 211 -81q98 -98 98 -324q0 -225 -98 -326q-82 -82 -211 -82q-124 0 -209 82q-96 101 -96 326zM1188 383q0 -299 168 -299q166 0 166 299q0 297 -166 297q-168 0 -168 -297z" />
<glyph unicode="&#x26;" horiz-adv-x="1236" d="M115 369q0 134 80 240t192 141q-93 33 -154 119.5t-61 193.5q0 153 112.5 256.5t307.5 103.5q197 0 342 -55q2 -33 -10 -69.5t-33 -57.5q-170 51 -301 51q-117 0 -184.5 -65.5t-67.5 -171.5q0 -110 69.5 -176t210.5 -66h367q121 0 182 27q21 -27 21 -76q0 -50 -34.5 -68 t-98.5 -18h-74q0 -26 1 -71t1 -58v-248q0 -44 5.5 -163.5t6.5 -137.5q-27 -6 -73 -6q-44 0 -74 6l-12 80q-160 -105 -334 -105q-185 0 -286 108.5t-101 285.5zM281 371q0 -122 65.5 -193.5t181.5 -71.5q86 0 167 30t136 75v336q0 61 3 131h-234q-85 0 -149.5 -28.5t-100 -75 t-52.5 -98t-17 -105.5z" />
<glyph unicode="'" horiz-adv-x="397" d="M92 1423q0 41 12 84q34 23 86 23q54 0 89 -23q12 -44 12 -84q0 -11 -9.5 -58.5t-24 -133.5t-24.5 -172q-14 -9 -40.5 -9t-45.5 9q-9 87 -22.5 172.5t-23 133.5t-9.5 58z" />
<glyph unicode="(" horiz-adv-x="630" d="M133 668q0 277 100 557.5t275 455.5q66 -17 94 -86q-153 -191 -227 -430t-74 -497t74 -497.5t227 -430.5q-28 -68 -94 -88q-175 175 -275 457t-100 559z" />
<glyph unicode=")" horiz-adv-x="630" d="M27 -260q154 191 228.5 430t74.5 498t-74.5 497.5t-228.5 429.5q33 70 96 86q175 -175 275 -455.5t100 -557.5t-100 -559t-275 -457q-64 20 -96 88z" />
<glyph unicode="*" horiz-adv-x="1013" d="M100 1151q-3 28 11.5 70.5t35.5 66.5l99 -31q27 -9 60 -23.5t49 -23t60 -32t48 -25.5q-31 139 -31 240l2 104q28 12 73 12t73 -12l2 -104q1 -23 -1 -48t-6 -53t-7.5 -46t-10 -50.5t-8.5 -44.5q138 82 221 106l98 29q20 -20 34 -62.5t11 -74.5l-98 -33q-78 -27 -240 -45 q118 -105 170 -178l58 -84q-15 -27 -50.5 -52.5t-68.5 -31.5l-59 82q-50 62 -119 213q-58 -139 -115 -213l-63 -82q-29 6 -64.5 32t-52.5 54l59 82q13 19 28.5 37.5t37 40.5t32.5 33t38.5 37t31.5 30q-154 12 -239 45z" />
<glyph unicode="+" d="M113 594q0 45 8 72h272q8 0 35.5 -1t40.5 -1q0 12 -1 39.5t-1 37.5v295q31 8 76 8q48 0 75 -8v-295q0 -10 -1 -37.5t-1 -39.5q12 0 40 1t36 1h273q8 -46 8 -72q0 -34 -8 -70h-273q-8 0 -36 1t-40 1q0 -13 1 -40.5t1 -36.5v-295q-30 -9 -75 -9q-41 0 -76 9v295q0 9 1 36.5 t1 40.5q-13 0 -40.5 -1t-35.5 -1h-272q-8 24 -8 70z" />
<glyph unicode="," horiz-adv-x="520" d="M82 -225q71 35 114 89.5t44 117.5q-56 10 -78 26q-19 27 -19 86q0 70 19 92q14 7 47.5 15t58.5 8q27 0 59 -7t44 -16q22 -42 22 -120q0 -124 -68.5 -225t-199.5 -150q-21 12 -33 36t-10 48z" />
<glyph unicode="-" horiz-adv-x="686" d="M100 541q0 39 9 73h471q6 -35 6 -73q0 -41 -6 -68h-471q-9 27 -9 68z" />
<glyph unicode="." horiz-adv-x="512" d="M133 96q0 21 5 50t12 40q46 23 106 23q25 0 58.5 -7.5t47.5 -15.5q7 -11 12 -40t5 -50q0 -59 -17 -90q-12 -7 -45.5 -13.5t-60.5 -6.5q-66 0 -106 20q-17 31 -17 90z" />
<glyph unicode="/" horiz-adv-x="833" d="M20 -166l650 1718q79 -7 135 -51l-649 -1718q-69 0 -136 51z" />
<glyph unicode="0" d="M113 664q0 222 31 354.5t120 222.5q108 111 281 111q91 0 155.5 -27.5t120.5 -83.5q88 -91 120 -224.5t32 -352.5q0 -221 -32 -354.5t-120 -225.5q-112 -109 -278 -109q-167 0 -279 109q-88 92 -119.5 225.5t-31.5 354.5zM276 664q0 -199 23 -314.5t78 -179.5 q64 -70 166 -70t166 70q55 63 77.5 178.5t22.5 315.5t-22.5 314.5t-77.5 178.5q-64 70 -166 70t-166 -70q-55 -64 -78 -179t-23 -314z" />
<glyph unicode="1" d="M154 946q140 85 239 189t135 192q33 8 74 8q39 0 72 -8v-1069q0 -24 -1 -65.5t-1 -63.5q15 0 56.5 1t53.5 1h158q6 -35 6 -65q0 -32 -6 -66h-725q-6 34 -6 66q0 30 6 65h199q12 0 53.5 -1t56.5 -1q0 22 -1 63.5t-1 65.5v578q0 2 6 254q-54 -74 -138 -138t-169 -100 q-52 34 -67 94z" />
<glyph unicode="2" d="M129 102q0 91 76 197t192 205l189 164q91 78 134.5 151t43.5 166q0 110 -64 174t-165 64q-89 0 -163 -55.5t-116 -147.5q-83 9 -113 59q50 115 156.5 194t247.5 79q172 0 275.5 -102t103.5 -263q0 -45 -8 -87t-19.5 -74.5t-34 -68t-39.5 -58t-50 -55t-52 -49.5t-57 -50 l-164 -142q-98 -84 -155.5 -157t-63.5 -117q115 10 245 10h428q0 -39 -2 -59q-9 -80 -104 -80h-649q-25 19 -48.5 48.5t-23.5 53.5z" />
<glyph unicode="3" d="M113 100q6 29 26 59.5t45 49.5q146 -107 301 -107q132 0 219 84t87 238q0 127 -68.5 197.5t-190.5 70.5q-93 0 -155 -39q-22 11 -41.5 34t-26.5 50l293 324q87 93 139 137l-6 8q-63 -16 -256 -16h-315q-6 27 -6 55q0 39 12 82h700q37 -68 37 -104q0 -38 -35 -76 l-245 -268q-22 -24 -84 -74h24q78 0 146 -23t122 -68.5t85.5 -121.5t31.5 -174q0 -88 -26.5 -162.5t-70.5 -125.5t-102 -86.5t-121 -52t-128 -16.5q-119 0 -220 34t-171 91z" />
<glyph unicode="4" d="M98 401q0 22 43 123l357 813q31 8 75 0.5t70 -24.5l-291 -664q-82 -179 -98 -209l4 -6q117 6 215 6h150q0 10 -1 40t-1 40v213q0 54 26 82.5t70 28.5h47l8 -6v-312q0 -12 -1 -44t-1 -42q10 0 40 1t42 1h137q4 -25 4 -63q0 -39 -10 -70h-131q-12 0 -42 1t-40 1 q0 -11 1 -43.5t1 -44.5v-223q-35 -6 -78 -6t-73 6v223q0 12 1 44.5t1 43.5q-11 0 -43 -1t-43 -1h-402q-2 4 -10.5 18.5t-11 20l-7.5 16.5t-6.5 19.5t-1.5 17.5z" />
<glyph unicode="5" d="M135 98q4 28 24.5 59t45.5 48q152 -103 297 -103q57 0 107.5 20.5t92 61.5t65.5 109.5t24 155.5q0 70 -17.5 124.5t-44.5 87t-64.5 54t-74 29.5t-76.5 8q-142 0 -262 -105q-20 3 -41 18.5t-31 32.5l27 617l12 12h666q10 -33 10 -63q0 -74 -70 -74h-366q-78 0 -113 2v-131 l-8 -168l-6 -72q109 58 219 58q181 0 292 -111.5t111 -308.5q0 -121 -38 -216t-102 -152t-142.5 -86.5t-165.5 -29.5q-211 0 -371 123z" />
<glyph unicode="6" d="M123 680q0 204 56 353.5t171.5 234t282.5 84.5q174 0 274 -62q-3 -31 -19.5 -63.5t-41.5 -48.5q-100 47 -209 47q-90 0 -158.5 -37.5t-109.5 -104t-61.5 -151.5t-22.5 -187q62 62 146.5 100t172.5 38q173 0 274 -112.5t101 -330.5q0 -202 -116.5 -333.5t-305.5 -131.5 q-178 0 -285 119q-21 24 -31 37t-36.5 64t-41 107t-27.5 156.5t-13 221.5zM285 567q0 -95 23 -204.5t75 -176.5q68 -86 176 -86q122 0 190 89t68 241q0 318 -250 318q-72 0 -149.5 -40.5t-132.5 -107.5v-33z" />
<glyph unicode="7" d="M141 1245q0 38 13 82h792q31 -57 31 -100q0 -29 -27 -72l-63 -92q-84 -127 -141.5 -229t-110 -224.5t-85 -257.5t-48.5 -291l-6 -61q-31 -8 -82 -8q-55 0 -82 8l8 78q53 494 358 944l21 31q18 28 39 56.5t42 56t25 32.5l-6 6q-57 -14 -330 -14h-342q-6 27 -6 55z" />
<glyph unicode="8" d="M111 332q0 117 70.5 213t178.5 149q-98 48 -155.5 128t-57.5 186q0 151 114 247.5t280 96.5q172 0 283.5 -93t111.5 -241q0 -101 -57 -181.5t-150 -127.5q112 -56 178 -147.5t66 -213.5q0 -169 -127 -271t-311 -102q-192 0 -308 94.5t-116 262.5zM270 344q0 -120 77 -185 t192 -65q113 0 192.5 69t79.5 187q0 61 -25.5 111.5t-70 84.5t-94 57t-107.5 38l-27 6h-2q-101 -43 -158 -126t-57 -177zM307 1012q0 -183 273 -250l24 -8q80 38 127 107.5t47 148.5q0 104 -68 163.5t-169 59.5q-99 0 -166.5 -61t-67.5 -160z" />
<glyph unicode="9" d="M106 887q0 202 116.5 333.5t305.5 131.5q178 0 285 -119q21 -25 31 -37.5t36.5 -63.5t41.5 -106.5t28 -156.5t13 -222q0 -204 -56 -353.5t-171.5 -234t-282.5 -84.5q-175 0 -275 62q3 31 20 64t42 49q102 -48 209 -48q89 0 157 37.5t109 104t62.5 151.5t23.5 187 q-63 -63 -148 -100.5t-172 -37.5q-173 0 -274 112.5t-101 330.5zM268 897q0 -317 250 -317q72 0 149.5 39t133.5 106v35q0 95 -23.5 204.5t-75.5 176.5q-72 86 -176 86q-122 0 -190 -89t-68 -241z" />
<glyph unicode=":" horiz-adv-x="520" d="M137 96q0 21 5 50t12 40q46 23 106 23q25 0 59 -7.5t48 -15.5q16 -26 16 -90q0 -61 -16 -90q-12 -7 -46 -13.5t-61 -6.5q-66 0 -106 20q-17 31 -17 90zM137 793q0 21 5 50t12 40q44 22 106 22q26 0 59.5 -7t47.5 -15q16 -26 16 -90q0 -62 -16 -91q-12 -7 -46 -13.5 t-61 -6.5q-66 0 -106 20q-17 31 -17 91z" />
<glyph unicode=";" horiz-adv-x="528" d="M78 -225q71 35 114 89.5t44 117.5q-56 10 -78 26q-19 27 -19 86q0 70 19 92q14 7 47.5 15t58.5 8q27 0 59 -7t44 -16q22 -42 22 -120q0 -124 -68.5 -225t-199.5 -150q-21 12 -33 36t-10 48zM141 793q0 21 5 50t12 40q44 22 106 22q26 0 59.5 -7t47.5 -15q16 -26 16 -90 q0 -62 -16 -91q-12 -7 -46 -13.5t-61 -6.5q-66 0 -106 20q-17 31 -17 91z" />
<glyph unicode="&#x3c;" d="M113 528q-18 75 0 129l772 422q64 -46 73 -123l-548 -288q-44 -23 -138 -68v-14q94 -46 138 -68l548 -289q-12 -79 -73 -123z" />
<glyph unicode="=" d="M113 420q0 45 8 72h844q8 -27 8 -72q0 -43 -8 -70h-844q-8 27 -8 70zM113 772q0 43 8 74h844q8 -31 8 -74t-8 -70h-844q-8 27 -8 70z" />
<glyph unicode="&#x3e;" d="M127 231l549 289q59 30 137 68v14q-78 38 -137 68l-549 288q9 76 74 123l772 -422q18 -75 0 -129l-774 -421q-64 48 -72 122z" />
<glyph unicode="?" horiz-adv-x="782" d="M33 1327q186 94 373 94q159 0 257.5 -91t98.5 -245q0 -235 -266 -391l-129 -76l-17 -237q-21 -8 -55 -8q-40 0 -64 8l-8 305l13 21l94 49q131 69 199.5 145t68.5 172q0 94 -61 151.5t-164 57.5q-124 0 -283 -76q-20 18 -37 53.5t-20 67.5zM182 88q0 56 15 82q38 20 96 20 q63 0 96 -20q14 -25 14 -82q0 -58 -14 -82q-33 -20 -96 -20q-58 0 -96 20q-15 26 -15 82z" />
<glyph unicode="@" horiz-adv-x="1908" d="M117 467q0 192 64 360t177.5 289.5t276.5 191.5t352 70q244 0 431.5 -98.5t290.5 -278t103 -413.5q0 -129 -33.5 -236.5t-89.5 -177t-127 -107.5t-149 -38q-170 0 -223 135q-55 -65 -132.5 -105.5t-158.5 -40.5q-148 0 -236 120t-88 325q0 104 27.5 197t77.5 164.5 t128 113t173 41.5q193 0 340 -133l-2 -531q0 -89 24.5 -127t79.5 -38q45 0 85.5 24t75.5 74t56 139t21 207q0 299 -184 483.5t-490 184.5q-160 0 -295 -61.5t-227 -167.5t-143.5 -252.5t-51.5 -313.5q0 -338 174 -526.5t461 -188.5q244 0 422 74q19 -15 32 -47.5t13 -63.5 q-232 -84 -475 -84q-170 0 -312.5 56t-246.5 160t-162.5 263.5t-58.5 356.5zM729 463q0 -142 50 -230t149 -88q63 0 132.5 47.5t110.5 112.5v483q-30 30 -82 52t-108 22q-117 0 -184.5 -114t-67.5 -285z" />
<glyph unicode="A" horiz-adv-x="1220" d="M53 8l469 1391q35 6 90 6q59 0 86 -6l469 -1391q-33 -20 -92 -20q-39 0 -59 17t-35 65l-98 295q-19 0 -80 -1.5t-64 -1.5h-274q-5 0 -64.5 1.5t-78.5 1.5l-119 -367q-27 -6 -70 -6q-34 0 -76 10zM367 498q18 0 66 1t52 1h236q2 0 50 -1t69 -1l-129 389q-77 239 -105 342 h-10q-32 -128 -70 -244z" />
<glyph unicode="B" horiz-adv-x="1228" d="M203 12v1374l12 13q24 0 173 3t226 3q223 0 326.5 -99t103.5 -270q0 -100 -53.5 -178.5t-146.5 -112.5q113 -31 190.5 -129t77.5 -231q0 -61 -15 -116t-50 -106t-88.5 -88t-136 -59t-185.5 -22q-75 0 -145.5 1t-149.5 2.5t-127 2.5zM358 123q48 0 145.5 1t145.5 1 q72 0 127 17.5t86.5 44.5t51 65t26 72t6.5 73q0 35 -8.5 70t-31 72.5t-56.5 66t-90.5 46.5t-128.5 18h-273v-547zM358 801h252q79 0 135.5 21.5t84.5 58t39.5 75t11.5 82.5q0 47 -10.5 84.5t-37 74t-82 57t-135.5 20.5q-182 0 -258 2v-475z" />
<glyph unicode="C" horiz-adv-x="1228" d="M117 692q0 184 43 327t118 229.5t170.5 130.5t206.5 44q107 0 199 -33.5t152 -88.5t93.5 -123.5t33.5 -139.5q0 -92 -89 -92q-33 0 -69 10v9q-1 42 -9 82q-10 45 -33 90t-59 79t-92.5 55t-126.5 21q-180 0 -276 -153.5t-96 -446.5q0 -273 98.5 -426t271.5 -153 q188 0 375 161q29 -17 53 -45.5t33 -56.5q-87 -88 -213 -142.5t-270 -54.5q-108 0 -195.5 39.5t-146 106.5t-98 159.5t-57 195t-17.5 216.5z" />
<glyph unicode="D" horiz-adv-x="1306" d="M203 12v1374l12 13q178 6 416 6q88 0 186 -27t158 -78q123 -105 167 -251.5t44 -350.5q0 -135 -14 -232t-62.5 -197.5t-134.5 -172.5q-60 -51 -157.5 -77.5t-186.5 -26.5q-60 0 -416 8zM358 125q54 0 139 -1t132 -1q71 0 129 18.5t98 49t70 76.5t47.5 94.5t28.5 108.5 t14.5 113t3.5 115t-3.5 115.5t-14.5 114t-28.5 108.5t-47.5 94t-70 76.5t-98 49t-129 18.5q-47 0 -132 1t-139 1v-1151z" />
<glyph unicode="E" horiz-adv-x="1153" d="M203 102v1284l12 13h791q4 -25 4 -64q0 -37 -11 -71h-522q-10 0 -34.5 -0.5t-47.5 -0.5t-43 1q0 -26 1 -63t1 -64v-363q24 0 66 1t57 1h424q6 -37 6 -67q0 -33 -6 -68h-424q-78 0 -123 2v-432q0 -15 -1 -40t-1 -38q70 4 127 4h561q0 -42 -4 -65q-15 -72 -100 -72h-645 q-40 0 -64 27.5t-24 74.5z" />
<glyph unicode="F" horiz-adv-x="1052" d="M203 0v1386l12 13h776q10 -30 10 -66q0 -71 -96 -71h-325q-163 0 -224 4q0 -47 1 -143t1 -144v-205q22 0 60.5 1t52.5 1h420q6 -38 6 -67q0 -33 -6 -68h-420q-72 0 -113 2v-643q-30 -6 -79 -6q-46 0 -76 6z" />
<glyph unicode="G" horiz-adv-x="1304" d="M117 690q0 154 33 279.5t88.5 208.5t131 139.5t157.5 81t171 24.5q126 0 251 -41t210 -112q-17 -74 -84 -121q-165 133 -387 133q-83 0 -153 -31t-128 -97.5t-91 -185.5t-33 -280q0 -285 105 -430t314 -145q167 0 306 47v278q0 90 2 125h-224q-71 0 -71 74q0 28 12 68 h311q66 0 94.5 -26t28.5 -83v-530q-223 -91 -487 -91q-123 0 -220.5 41t-159.5 109t-102.5 162t-57.5 193t-17 210z" />
<glyph unicode="H" horiz-adv-x="1368" d="M203 0v1399q30 6 76 6q49 0 79 -6v-457q0 -29 -1 -76.5t-1 -74.5q8 0 63 1t62 1h406q7 0 62 -1t63 -1q0 27 -1 74.5t-1 76.5v457q27 6 75 6q45 0 80 -6v-1399q-35 -6 -80 -6t-75 6v504q0 29 1 76.5t1 74.5q-8 0 -63 -1t-62 -1h-406q-7 0 -62 1t-63 1q0 -27 1 -74.5 t1 -76.5v-504q-30 -6 -79 -6q-46 0 -76 6z" />
<glyph unicode="I" horiz-adv-x="577" d="M211 0v1399q27 6 76 6q45 0 80 -6v-1399q-35 -6 -80 -6q-49 0 -76 6z" />
<glyph unicode="J" horiz-adv-x="892" d="M20 63q15 68 64 121q49 -30 114.5 -49.5t125.5 -19.5q132 0 184.5 79t52.5 269v936q34 6 82 6q46 0 76 -6v-905q0 -95 -7.5 -164.5t-31.5 -139t-65.5 -113t-112.5 -70.5t-170 -27q-79 0 -164.5 22.5t-147.5 60.5z" />
<glyph unicode="K" horiz-adv-x="1193" d="M203 0v1399q30 6 76 6q49 0 79 -6v-613l150 5q25 0 39.5 11t30.5 38l301 487q27 43 47.5 59.5t62.5 16.5q22 0 84 -4l12 -17l-344 -557q-30 -49 -63 -75q97 -14 152.5 -74.5t109.5 -188.5l125 -319q35 -85 84 -125q-16 -25 -48 -39t-61 -14q-48 0 -69.5 22.5t-42.5 79.5 l-131 334q-49 125 -110 175t-163 50q-80 0 -166 -4v-647q-30 -6 -79 -6q-46 0 -76 6z" />
<glyph unicode="L" horiz-adv-x="1036" d="M203 104v1289l12 12h61q50 0 66 -23.5t16 -78.5v-1170q92 6 179 6h436q0 -44 -6 -67q-12 -72 -101 -72h-573q-39 0 -64.5 27t-25.5 77z" />
<glyph unicode="M" horiz-adv-x="1624" d="M172 2l109 1397q39 6 106 6q65 0 100 -6l236 -719q18 -51 49.5 -163t34.5 -136h10q5 28 36 139.5t48 159.5l236 719q43 6 100 6q63 0 106 -6l109 -1397q-38 -10 -80 -10q-38 0 -72 6l-59 848q-6 93 -16 387h-11l-323 -1014q-50 -8 -80 -8q-36 0 -76 8l-325 1014h-11 q-3 -52 -8 -194t-8 -193l-57 -848q-38 -6 -76 -6q-45 0 -78 10z" />
<glyph unicode="N" horiz-adv-x="1374" d="M203 0v1399q38 6 92 6q57 0 98 -6l498 -928q30 -56 77.5 -155t65.5 -134h6q-14 263 -14 467v654q0 56 16.5 79t65.5 23h53l13 -10v-1395q-40 -6 -97 -6t-98 6l-498 928q-61 115 -139 282h-6q12 -381 12 -442v-768q-44 -6 -74 -6q-33 0 -71 6z" />
<glyph unicode="O" horiz-adv-x="1337" d="M117 700q0 184 52.5 345.5t164.5 259.5q131 118 334 118q205 0 336 -118q111 -99 164 -260.5t53 -344.5q0 -185 -53 -346t-164 -260q-132 -119 -336 -119q-202 0 -334 119q-112 98 -164.5 259t-52.5 347zM283 700q0 -86 10 -164.5t36.5 -159t68 -138.5t111 -95t159.5 -37 q65 0 119.5 19t93.5 52t69.5 79.5t49.5 98t31 112t17 117t5 116.5q0 87 -9.5 164.5t-36 158t-68.5 138.5t-111.5 94.5t-159.5 36.5q-65 0 -119 -19t-93 -51.5t-69.5 -79t-50 -97.5t-31.5 -111.5t-17 -117t-5 -116.5z" />
<glyph unicode="P" horiz-adv-x="1138" d="M203 0v1386l12 13q33 0 173.5 3t217.5 3q204 0 327.5 -113t123.5 -325t-123 -326.5t-328 -114.5h-248v-526q-30 -6 -79 -6q-46 0 -76 6zM358 655q84 2 252 2q80 0 138 28.5t87.5 76t42.5 98t13 107.5q0 58 -13 108.5t-42.5 97t-87.5 74t-138 27.5q-176 0 -252 2v-621z " />
<glyph unicode="Q" horiz-adv-x="1314" d="M117 700q0 184 49 348t158 261q127 114 333 114q205 0 332 -114q110 -97 159.5 -260.5t49.5 -348.5q0 -415 -201 -596q-64 -57 -116 -75l45 -31q102 -73 155.5 -97t104.5 -26q-4 -60 -37.5 -88.5t-77.5 -28.5q-66 0 -125 41l-250 178q-8 -2 -28 -2q-213 0 -344 115 q-109 97 -158 260t-49 350zM283 700q0 -89 8.5 -165.5t33.5 -157t65 -136.5t108.5 -92t158.5 -36q373 0 373 587q0 89 -8.5 166t-33 158t-64.5 138t-108.5 93.5t-158.5 36.5t-158.5 -36.5t-108.5 -93.5t-65 -138t-33.5 -158t-8.5 -166z" />
<glyph unicode="R" horiz-adv-x="1212" d="M203 0v1386l12 13q50 1 134.5 2.5t153 2.5t126.5 1q212 0 328 -107.5t116 -298.5q0 -138 -71.5 -236.5t-196.5 -135.5q84 -28 137 -166l107 -277q15 -37 22.5 -54.5t25.5 -45.5t40 -45q-16 -24 -48 -37.5t-61 -13.5q-44 0 -67.5 23.5t-45.5 78.5l-118 311q-34 93 -83 141 t-143 48h-213v-590q-34 -6 -79 -6q-46 0 -76 6zM358 721q86 4 269 4q81 0 138.5 24t87.5 65.5t43 86.5t13 98q0 54 -13 99.5t-43 87t-87.5 65t-138.5 23.5q-193 0 -269 2v-555z" />
<glyph unicode="S" horiz-adv-x="1136" d="M80 129q3 34 24 69t48 56q95 -64 202.5 -102.5t206.5 -38.5q143 1 227 61q86 61 86 168q0 159 -217 254l-239 104q-136 60 -206.5 142.5t-70.5 201.5q0 159 123 269t322 110q203 0 407 -98q0 -35 -17.5 -71.5t-45.5 -59.5q-190 96 -338 96q-129 0 -210 -64.5t-81 -166.5 q0 -78 52 -127t147 -90l231 -101q305 -132 305 -370q0 -180 -122 -288t-359 -108q-126 0 -251.5 41.5t-223.5 112.5z" />
<glyph unicode="T" horiz-adv-x="989" d="M37 1331q0 31 6 68h901q12 -27 12 -66q0 -36 -23 -52.5t-73 -16.5h-174q-12 0 -55.5 1t-57.5 1v-1266q-35 -6 -77 -6q-46 0 -80 6v1266q-14 0 -56 -1t-55 -1h-262q-6 34 -6 67z" />
<glyph unicode="U" horiz-adv-x="1363" d="M186 477v916l13 12h61q50 0 66 -23.5t16 -78.5v-824q0 -181 89.5 -278t250.5 -97q162 0 251 96.5t89 278.5v920q30 6 76 6q48 0 82 -6v-922q0 -243 -136.5 -372.5t-363.5 -129.5q-224 0 -359 129.5t-135 372.5z" />
<glyph unicode="V" horiz-adv-x="1140" d="M55 1386q55 25 99 25q65 0 86 -76l243 -825q27 -87 95 -340q4 -18 16 -18l356 1247q27 6 68 6q40 0 72 -8l8 -13l-418 -1386q-62 -6 -119 -6q-43 0 -68.5 15.5t-41.5 66.5z" />
<glyph unicode="W" horiz-adv-x="1681" d="M80 1393q39 18 90 18q36 0 54.5 -19t27.5 -65l151 -784l70 -393q3 -14 6 -17.5t13 -3.5l251 1239q47 6 105 6q68 0 102 -6l232 -1218q3 -14 6 -17.5t10 -3.5q9 50 80 414l180 856q30 6 72 6q45 0 76 -8l8 -11l-305 -1384q-51 -10 -148 -10q-42 0 -66 17t-32 67l-115 606 q-52 267 -96 522h-12q-60 -327 -103 -522l-143 -682q-55 -8 -139 -8q-44 0 -72.5 17.5t-38.5 68.5z" />
<glyph unicode="X" horiz-adv-x="1171" d="M47 18l449 719l-392 637q48 37 107 37q60 0 98 -65l293 -476l324 529q24 8 65 8q55 0 80 -14l6 -13l-395 -639l440 -716q-45 -37 -106 -37q-57 0 -98 65l-343 555l-370 -608q-24 -8 -70 -8q-54 0 -82 14z" />
<glyph unicode="Y" horiz-adv-x="985" d="M31 1380q53 33 102 33q59 0 86 -76l197 -475q27 -61 84 -235h10q9 31 26 79t36 98t22 58l213 537q31 8 70 8q37 0 75 -10l6 -13l-385 -929v-455q-35 -6 -79 -6q-48 0 -78 6v461z" />
<glyph unicode="Z" horiz-adv-x="1132" d="M109 106q0 39 24 78l551 858q22 35 158 226l-6 6q-69 -14 -322 -14h-348q-6 27 -6 55q0 41 12 84h811q23 -84 23 -109q0 -26 -25 -71l-547 -848q-20 -32 -46.5 -70.5t-63.5 -90t-52 -73.5l7 -6q107 10 215 10h268q176 0 246 33q14 -44 14 -82q0 -92 -115 -92h-776 q-22 75 -22 106z" />
<glyph unicode="[" horiz-adv-x="647" d="M205 -276v1918l12 13l363 -15q4 -16 4 -47q0 -30 -13 -69l-211 -6v-1670l211 -6q13 -43 13 -69q0 -31 -4 -47l-363 -15z" />
<glyph unicode="\" horiz-adv-x="833" d="M27 1501q60 48 135 51l649 -1718q-27 -21 -64.5 -35t-70.5 -16z" />
<glyph unicode="]" horiz-adv-x="647" d="M61 -227q0 26 13 69l211 6v1670l-211 6q-13 39 -13 69q0 27 5 47l362 15l14 -13v-1918l-14 -13l-362 15q-5 20 -5 47z" />
<glyph unicode="^" d="M109 627l352 700q31 7 82 7t82 -7l352 -700q-23 -8 -73.5 -8.5t-82.5 8.5l-207 424q-19 38 -65 147h-12l-66 -147l-207 -424q-32 -9 -82 -8.5t-73 8.5z" />
<glyph unicode="_" horiz-adv-x="1044" d="M-6 -231q0 39 6 63h1044q7 -28 7 -63q0 -34 -7 -62h-1044q-6 24 -6 62z" />
<glyph unicode="`" horiz-adv-x="815" d="M143 1364q15 38 50 70.5t75 44.5l281 -316q-9 -22 -29 -40.5t-43 -24.5z" />
<glyph unicode="a" horiz-adv-x="1032" d="M104 272q0 165 103 247.5t280 82.5q131 0 226 -18v102q0 111 -48 160t-137 49q-144 0 -333 -84q-22 19 -38 54t-16 65q218 96 402 96q158 0 237.5 -87.5t79.5 -254.5v-422q0 -73 11.5 -119t46.5 -80q-8 -22 -28 -44.5t-42 -32.5q-102 37 -127 143q-158 -154 -322 -154 q-140 0 -217.5 89t-77.5 208zM258 283q0 -77 43.5 -128t118.5 -51q74 0 152.5 42t140.5 122v205q-98 14 -224 14q-107 0 -169 -53.5t-62 -150.5z" />
<glyph unicode="b" horiz-adv-x="1073" d="M180 51v1442l13 12h55q50 0 66 -23.5t16 -78.5v-506q131 125 288 125q113 0 193 -65.5t119 -179t39 -263.5q0 -135 -36.5 -239t-98.5 -165.5t-136.5 -92.5t-158.5 -31q-182 0 -359 65zM330 137q88 -35 207 -35q120 0 199 105.5t79 306.5q0 188 -62 281.5t-157 93.5 q-73 0 -145 -40.5t-121 -103.5v-608z" />
<glyph unicode="c" horiz-adv-x="960" d="M106 494q0 134 34.5 239.5t93 168.5t131 95.5t153.5 32.5q92 0 164 -30t111.5 -76.5t59 -94.5t19.5 -92q0 -45 -16 -69.5t-63 -24.5q-29 0 -66 6q1 11 1 22q0 35 -8 69q-10 44 -32.5 82.5t-67 61.5t-106.5 23q-115 0 -182.5 -106.5t-67.5 -306.5q0 -192 68.5 -290 t193.5 -98q47 0 97.5 18.5t83.5 39t81 55.5q24 -14 45 -41.5t27 -54.5q-158 -148 -354 -148q-85 0 -154 29.5t-114 78.5t-75.5 117t-43.5 141t-13 153z" />
<glyph unicode="d" horiz-adv-x="1075" d="M104 489q0 135 34 240.5t90.5 167.5t122.5 93.5t136 31.5q122 0 256 -84v555l13 12h55q48 0 64 -23.5t16 -78.5v-1120q0 -163 57 -220q-8 -22 -26.5 -44.5t-40.5 -32.5q-96 34 -125 137q-57 -66 -135.5 -107t-171.5 -41q-165 0 -255 140t-90 374zM258 489 q0 -192 62.5 -287.5t156.5 -95.5q70 0 142 42t124 116v535q-137 92 -241 92q-102 0 -173 -101t-71 -301z" />
<glyph unicode="e" horiz-adv-x="1030" d="M106 504q0 233 109 379.5t301 146.5q96 0 172 -34t124 -94t73.5 -139t25.5 -171q0 -74 -10 -135h-635q10 -348 264 -348q139 0 297 86q21 -18 37 -48.5t19 -56.5q-73 -51 -172.5 -83t-200.5 -32q-89 0 -159 28.5t-115.5 76.5t-75 116.5t-42 144t-12.5 163.5zM266 573h492 v27q0 138 -59.5 225.5t-182.5 87.5q-113 0 -177.5 -92t-72.5 -248z" />
<glyph unicode="f" horiz-adv-x="655" d="M39 948q0 28 6 58l170 -5q-14 182 -14 213q0 131 76.5 215t216.5 84q54 0 120.5 -12.5t112.5 -30.5q0 -64 -37 -104q-126 33 -186 33q-75 0 -118.5 -50.5t-43.5 -140.5q0 -74 18 -207l299 5q7 -35 7 -58q0 -24 -7 -59l-290 2v-891q-30 -6 -74 -6q-39 0 -74 6v891l-176 -2 q-6 30 -6 59z" />
<glyph unicode="g" horiz-adv-x="1073" d="M104 500q0 133 34 238t90 167t122 93.5t135 31.5q163 0 289 -110q28 71 109 100q22 -11 40.5 -34t26.5 -46q-57 -55 -57 -219v-643q0 -155 -21 -247.5t-71 -152.5q-46 -57 -128 -93t-186 -36q-174 0 -337 70q4 73 43 119q61 -30 140.5 -48t139.5 -18q86 0 143.5 25.5 t85.5 74.5t38 102t10 126v119q-131 -135 -297 -135q-168 0 -258.5 139t-90.5 377zM258 500q0 -194 60.5 -289.5t156.5 -95.5q76 0 150 42t125 109v504v27q-121 102 -244 102q-107 0 -177.5 -99.5t-70.5 -299.5z" />
<glyph unicode="h" horiz-adv-x="1114" d="M180 0v1493l13 12h55q50 0 66 -23.5t16 -78.5v-529q70 67 164 107.5t188 40.5q71 0 123 -25.5t81.5 -71t43.5 -101.5t14 -124v-505q0 -113 25 -175q-37 -32 -97 -32q-42 0 -59.5 24t-17.5 76v565q0 125 -32.5 177.5t-119.5 52.5q-78 0 -165.5 -44.5t-147.5 -113.5v-725 q-30 -6 -74 -6q-46 0 -76 6z" />
<glyph unicode="i" horiz-adv-x="524" d="M86 946q0 28 8 55q82 11 103 11h16q64 0 99.5 -40t35.5 -108v-864q-30 -6 -74 -6q-47 0 -77 6v791q0 57 -18 77.5t-66 20.5h-19q-8 27 -8 57zM133 1280q0 48 14 76q33 20 93 20q62 0 92 -20q14 -28 14 -76t-14 -76q-12 -9 -40.5 -15.5t-51.5 -6.5q-56 0 -93 22 q-14 28 -14 76z" />
<glyph unicode="j" horiz-adv-x="538" d="M72 -352q83 43 111 96.5t28 157.5v889q0 57 -18 77.5t-66 20.5h-37q-8 40 -8 57q0 15 8 55q82 11 125 11h16q61 0 96 -40t35 -108v-837v-25q0 -91 -2 -133t-13.5 -104t-36.5 -93.5t-72 -65t-119 -55.5q-36 36 -47 97zM147 1280q0 46 15 76q33 20 92 20q62 0 92 -20 q14 -28 14 -76t-14 -76q-12 -9 -40.5 -15.5t-51.5 -6.5q-55 0 -92 22q-15 30 -15 76z" />
<glyph unicode="k" horiz-adv-x="1003" d="M180 0v1493l13 12h55q50 0 66 -23.5t16 -78.5v-823l88 4q28 0 47 28l219 324q27 41 50 58.5t65 17.5q17 0 75 -4l13 -17l-260 -379q-24 -38 -49 -57q71 -13 117 -57t85 -131l80 -181q53 -120 98 -153q-14 -19 -42.5 -32t-57.5 -13q-47 0 -70.5 24.5t-48.5 81.5l-94 213 q-39 90 -79.5 121t-125.5 31q-50 0 -110 -8v-451q-30 -6 -74 -6q-46 0 -76 6z" />
<glyph unicode="l" horiz-adv-x="579" d="M176 162v1331l12 12h56q50 0 66 -23.5t16 -78.5v-1198q0 -88 75 -88h86q15 -30 15 -82q0 -23 -2 -31q-82 -12 -150 -12q-80 0 -127 44t-47 126z" />
<glyph unicode="m" horiz-adv-x="1619" d="M180 0v997l13 15h57q49 0 65.5 -25.5t16.5 -81.5v-31q61 70 141 109t160 39q167 0 229 -154q167 154 332 154q127 0 191.5 -88t64.5 -227v-512q0 -113 25 -175q-37 -32 -97 -32q-42 0 -60 24t-18 76v569q0 122 -32 175t-107 53q-65 0 -138 -41.5t-132 -114.5v-22v-707 q-30 -6 -76 -6t-76 6v655q0 123 -31.5 176.5t-107.5 53.5q-66 0 -140 -43t-128 -117v-725q-30 -6 -74 -6q-48 0 -78 6z" />
<glyph unicode="n" horiz-adv-x="1116" d="M180 0v999l13 13h57q49 0 65.5 -25.5t16.5 -81.5v-28q69 66 163 105.5t189 39.5q137 0 200.5 -88.5t63.5 -231.5v-507q0 -117 23 -175q-32 -32 -97 -32q-42 0 -59.5 24t-17.5 76v567q0 125 -32 177.5t-118 52.5q-79 0 -167 -44.5t-148 -113.5v-727q-30 -6 -74 -6 q-48 0 -78 6z" />
<glyph unicode="o" horiz-adv-x="1062" d="M106 502q0 270 144 418q107 110 280 110q176 0 283 -110q143 -147 143 -418t-143 -418q-109 -109 -283 -109q-171 0 -280 109q-144 148 -144 418zM264 502q0 -81 13.5 -150t43 -129t83.5 -94.5t128 -34.5q73 0 127 34.5t84 94t44 129t14 150.5q0 80 -14 149.5t-44 129.5 t-84 95t-127 35q-74 0 -128 -35t-83.5 -95t-43 -129.5t-13.5 -149.5z" />
<glyph unicode="p" horiz-adv-x="1077" d="M180 -428v1427l13 13h53q50 0 67 -26t17 -83v-10q56 62 133 99.5t166 37.5q165 0 254.5 -140.5t89.5 -375.5q0 -108 -23 -198t-60.5 -150.5t-87.5 -102t-103.5 -60.5t-108.5 -19q-132 0 -260 84v-406q0 -55 -16 -78.5t-66 -23.5h-55zM330 207q133 -92 245 -92 q102 0 173 100t71 299q0 193 -63 288t-156 95q-73 0 -146.5 -43.5t-123.5 -120.5v-526z" />
<glyph unicode="q" horiz-adv-x="1073" d="M104 500q0 133 34 238t90 167t122 93.5t135 31.5q163 0 289 -106q31 67 109 96q22 -11 40.5 -34t26.5 -46q-57 -55 -57 -219v-1149l-12 -12h-56q-48 0 -64 23.5t-16 78.5v449q-127 -127 -292 -127q-168 0 -258.5 139t-90.5 377zM258 500q0 -192 61.5 -288.5t155.5 -96.5 q74 0 146.5 40t123.5 105v510q0 3 -0.5 9.5t-0.5 12t1 9.5q-117 98 -239 98q-105 0 -176.5 -100t-71.5 -299z" />
<glyph unicode="r" horiz-adv-x="722" d="M125 934q6 22 25 47.5t40 38.5q116 -43 148 -182q38 81 107 130.5t167 49.5q43 0 95 -8q0 -89 -35 -144q-25 2 -72 2q-165 0 -250 -186v-682q-30 -6 -74 -6q-47 0 -77 6v725q0 71 -21.5 125.5t-52.5 83.5z" />
<glyph unicode="s" horiz-adv-x="888" d="M76 78q1 28 18.5 59.5t40.5 50.5q168 -94 291 -94q96 0 155.5 44.5t61.5 115.5q0 51 -39 94.5t-110 69.5l-115 45q-262 98 -262 285q0 128 99 205t243 77q74 0 160.5 -19t150.5 -48q0 -31 -13 -64.5t-34 -54.5q-143 63 -268 63q-80 0 -131.5 -41t-51.5 -108q0 -51 37 -85 t117 -65l121 -47q122 -47 188 -118.5t66 -178.5q0 -134 -104.5 -211.5t-272.5 -77.5q-185 0 -348 103z" />
<glyph unicode="t" horiz-adv-x="690" d="M66 948q0 28 6 58l145 -2v215q0 55 16 78.5t64 23.5h55l13 -12v-308l260 5q6 -30 6 -58q0 -29 -6 -59l-260 2v-688q0 -86 79 -86h156q14 -35 14 -82q0 -23 -4 -31q-94 -12 -207 -12q-87 0 -136.5 44t-49.5 126v729l-145 -2q-6 30 -6 59z" />
<glyph unicode="u" horiz-adv-x="1118" d="M145 985q37 33 97 33q42 0 59.5 -24t17.5 -76v-568q0 -126 32.5 -178.5t119.5 -52.5q77 0 165 44t148 113v728q27 8 74 8q51 0 78 -8v-721q0 -78 11 -132.5t46 -87.5q-8 -23 -27 -45t-42 -32q-102 36 -129 151q-70 -70 -167.5 -112.5t-195.5 -42.5q-137 0 -199.5 88 t-62.5 231v510q0 109 -25 174z" />
<glyph unicode="v" horiz-adv-x="905" d="M23 993q55 27 92 27q59 0 75 -59l164 -488q67 -210 97 -326q3 -11 6 -13.5t12 -2.5l274 875q33 8 62 8q22 0 76 -13l4 -6q-181 -563 -336 -995q-41 -10 -107 -10q-48 0 -70 17.5t-44 80.5z" />
<glyph unicode="w" horiz-adv-x="1441" d="M66 995q57 25 94 25q56 0 69 -62l109 -475q37 -160 74 -352q4 -18 16 -18l207 891q30 6 92 6t92 -6l195 -873q3 -12 5.5 -15t10.5 -3q47 216 84 370l123 523q24 8 72 8q42 0 71 -13l4 -6l-254 -997q-44 -6 -118 -6q-48 0 -76.5 18.5t-40.5 77.5l-72 320 q-9 40 -41.5 201.5t-52.5 246.5h-8q-27 -132 -98 -446l-99 -410q-47 -8 -129 -8q-42 0 -68 18.5t-40 77.5z" />
<glyph unicode="x" horiz-adv-x="919" d="M45 16l326 510l-297 459q56 37 104 37q47 0 76 -47l211 -326l219 355q20 10 66 10q47 0 73 -15l6 -12l-288 -455l333 -509q-60 -37 -106 -37q-48 0 -76 45l-243 377l-256 -410q-20 -8 -68 -8q-46 0 -74 14z" />
<glyph unicode="y" horiz-adv-x="925" d="M16 -420q-1 6 -1 12q0 21 9 46q10 32 25 53q67 -23 135 -23q57 0 100 20.5t74 63.5t52.5 93t44.5 126l6 21q-54 3 -81.5 23.5t-45.5 76.5l-287 901q66 27 90 27q59 0 80 -72l162 -514q21 -65 56.5 -188.5t37.5 -130.5q5 -15 21 -15l249 906q27 8 70 8t76 -13l4 -6 l-281 -960q-31 -106 -58.5 -177.5t-63.5 -133.5t-78.5 -97t-99.5 -54t-130 -19q-90 0 -166 26z" />
<glyph unicode="z" horiz-adv-x="909" d="M84 94q0 28 27 64l385 528q9 12 159 199l-6 6q-82 -10 -282 -10h-246q-4 18 -4 53q0 37 8 70h668q26 -64 26 -97q0 -25 -24 -59l-379 -516q-56 -75 -162 -207l6 -6q108 6 205 6h113q169 0 237 25q12 -35 12 -72q0 -39 -24.5 -58.5t-85.5 -19.5h-608q-25 74 -25 94z" />
<glyph unicode="{" horiz-adv-x="651" d="M76 664.5q0 33.5 8 52.5q72 28 118 92.5t46 157.5v358q0 134 73.5 215t196.5 102l88 15q16 -18 24 -51t1 -60l-88 -28q-137 -40 -137 -195v-352q0 -95 -45 -179t-119 -120v-17q74 -36 119 -119.5t45 -177.5v-356q0 -152 137 -195l88 -26q7 -28 -1 -60.5t-24 -52.5l-88 15 q-122 21 -196 102.5t-74 214.5v362q0 91 -46 155.5t-118 94.5q-8 19 -8 52.5z" />
<glyph unicode="|" horiz-adv-x="505" d="M180 -287v1874q30 6 72 6q40 0 74 -6v-1874q-34 -6 -74 -6q-42 0 -72 6z" />
<glyph unicode="}" horiz-adv-x="651" d="M18 -219l91 26q137 43 137 195v356q0 94 45 177.5t119 119.5v17q-74 36 -119 120t-45 179v352q0 155 -137 195l-91 28q-6 28 2 61t25 50l86 -15q123 -21 196.5 -102t73.5 -215v-358q0 -93 46 -157.5t118 -92.5q9 -19 9 -52.5t-9 -52.5q-72 -30 -118 -94.5t-46 -155.5 v-362q0 -133 -74 -214.5t-196 -102.5l-86 -15q-17 19 -25 51.5t-2 61.5z" />
<glyph unicode="~" horiz-adv-x="1146" d="M90 537l21 36q83 164 256 164q81 0 168 -41l157 -71q66 -27 113 -27q73 0 131 74l31 39q27 -2 53.5 -18t36.5 -40l-21 -37q-82 -163 -256 -163q-81 0 -168 41l-157 71q-58 25 -113 25q-73 0 -129 -72l-33 -39q-27 2 -53.5 18t-36.5 40z" />
<glyph unicode="&#xa1;" horiz-adv-x="567" d="M172 915q0 60 16 82q33 23 97 23q58 0 96 -23q14 -25 14 -82t-14 -81q-40 -21 -96 -21q-62 0 -97 21q-16 22 -16 81zM184 -395l39 1018q24 8 62 8q37 0 61 -8l14 -985q-66 -46 -163 -46z" />
<glyph unicode="&#xa2;" horiz-adv-x="964" d="M104 662q0 234 97 367.5t248 160.5v203q24 6 67 6t70 -6v-201q74 -10 132 -43t90 -76t48 -86t16 -82q0 -46 -17 -71t-64 -25q-30 0 -64 6q3 47 -6.5 90.5t-32.5 82.5t-68.5 62t-107.5 23q-113 0 -178.5 -106.5t-65.5 -304.5q0 -194 66.5 -292t191.5 -98q128 0 258 117 q24 -12 47.5 -38t32.5 -50q-112 -131 -284 -158v-204q-45 -5 -70 -5q-28 0 -68 5v204q-90 13 -157.5 62t-105.5 123t-56.5 157.5t-18.5 176.5z" />
<glyph unicode="&#xa3;" horiz-adv-x="1073" d="M121 104q0 46 24 78l37 58q105 156 105 286q0 6 -1 18.5t-1 18.5q-53 -2 -156 -2q-12 56 0 125q84 0 125 -2q-9 24 -28 72.5t-30 79t-20.5 75t-9.5 84.5q0 65 23 126.5t68.5 114t122 84.5t173.5 32q122 0 222 -43t167 -101q-2 -32 -26.5 -66t-55.5 -44q-67 56 -149 88.5 t-148 32.5q-103 0 -171 -62t-68 -166q0 -49 12 -97t38.5 -118t33.5 -92q52 0 180 1t211 1q16 -62 0 -125q-62 0 -182.5 1t-180.5 1q0 -7 1 -21t1 -20q0 -175 -149 -389l6 -6q17 1 57 3t85 3.5t100 1.5h448q0 -38 -4 -63q-15 -72 -100 -72h-736q-24 71 -24 104z" />
<glyph unicode="&#xa4;" horiz-adv-x="1159" d="M76 274l147 158q-78 115 -78 254t78 254l-147 158q34 60 90 90l158 -148q111 78 256 78q138 0 251 -76l160 148q27 -14 52 -38.5t38 -51.5l-147 -158q80 -118 80 -256q0 -139 -78 -254l147 -158q-26 -50 -90 -90l-157 148q-115 -78 -256 -78t-256 78l-158 -148 q-53 30 -90 90zM305 686q0 -130 76 -220.5t199 -90.5t198.5 90.5t75.5 220.5t-76 221.5t-198 91.5q-123 0 -199 -91.5t-76 -221.5z" />
<glyph unicode="&#xa5;" horiz-adv-x="1019" d="M59 1315q52 31 105 31q51 0 82 -66l182 -444q29 -61 82 -218h10q7 19 24 67t31.5 87t26.5 64l207 497q38 10 70 10q42 0 75 -8l7 -12l-238 -539h176q6 -30 6 -59q0 -25 -6 -55h-227l-78 -181h305q6 -30 6 -59q0 -25 -6 -55h-313v-375q-34 -6 -80 -6q-44 0 -74 6v375h-313 q-8 27 -8 55q0 32 8 59h305l-80 181h-225q-8 27 -8 55q0 32 8 59h174z" />
<glyph unicode="&#xa6;" horiz-adv-x="493" d="M176 -287v793q27 6 70 6q38 0 73 -6v-793q-34 -6 -73 -6q-43 0 -70 6zM176 795v792q27 6 70 6q38 0 73 -6v-792q-40 -7 -73 -7q-38 0 -70 7z" />
<glyph unicode="&#xa7;" horiz-adv-x="976" d="M72 598q0 96 62 175t161 128q-143 96 -143 242q0 127 100 203.5t246 76.5q74 0 159 -19.5t148 -49.5q0 -31 -13 -64.5t-34 -54.5q-148 65 -264 65q-81 0 -133 -40.5t-52 -108.5q0 -53 38.5 -90t115.5 -68l119 -47q73 -29 123.5 -55.5t101 -65.5t76.5 -91.5t26 -117.5 q0 -96 -63.5 -176t-163.5 -129q145 -91 145 -241q0 -128 -101.5 -204.5t-258.5 -76.5q-85 0 -176.5 24t-149.5 62q-1 29 16.5 64t39.5 51q147 -78 276 -78q92 0 145.5 40t53.5 109q0 53 -38.5 90t-115.5 68l-121 47q-72 28 -123 55.5t-101 67t-75.5 92t-25.5 117.5zM229 616 q0 -37 18 -68t53 -55.5t68.5 -41t82.5 -35.5l110 -45q191 88 191 225q0 38 -18 69.5t-53 56t-69.5 41.5t-83.5 36l-114 41q-185 -87 -185 -224z" />
<glyph unicode="&#xa8;" horiz-adv-x="815" d="M131 1241q0 35 14 70q29 18 80 18q50 0 82 -18q15 -38 15 -70q0 -36 -15 -70q-29 -18 -82 -18q-20 0 -45 5.5t-35 12.5q-14 35 -14 70zM494 1241q0 35 14 70q32 18 82 18q51 0 80 -18q14 -35 14 -70q0 -39 -14 -70q-25 -18 -80 -18q-53 0 -82 18q-14 35 -14 70z" />
<glyph unicode="&#xa9;" horiz-adv-x="1658" d="M92 698q0 205 96.5 374.5t265 266.5t373.5 97q153 0 290.5 -57t236 -155.5t156 -235.5t57.5 -290q0 -205 -97.5 -373.5t-267.5 -265t-375 -96.5t-373.5 96.5t-265 265t-96.5 373.5zM236 698q0 -168 76 -309.5t212.5 -225t302.5 -83.5q168 0 305 83.5t214 225t77 309.5 t-77 310.5t-214.5 226.5t-304.5 84q-166 0 -302.5 -84t-212.5 -226t-76 -311zM473 698q0 101 31 182.5t83 131.5t115.5 76t131.5 26q76 0 137.5 -25t96.5 -63.5t53 -80t18 -79.5q0 -80 -72 -80q-32 0 -61 11q4 49 -11 93.5t-58 76.5t-108 32q-96 0 -152 -78t-56 -223 q0 -141 58.5 -218t160.5 -77q58 0 117.5 26t105.5 67q44 -21 67 -80q-56 -57 -139 -93t-168 -36q-160 0 -255 112.5t-95 298.5z" />
<glyph unicode="&#xaa;" horiz-adv-x="831" d="M82 852q0 126 80.5 189t220.5 63q77 0 172 -10v61q0 152 -133 152q-126 0 -266 -62q-19 16 -33 45.5t-14 59.5q171 73 321 73q252 0 252 -262v-311q0 -56 9.5 -91.5t37.5 -62.5q-5 -17 -23 -37t-40 -30q-80 27 -101 102q-120 -108 -248 -108q-113 0 -174 68t-61 161z M219 862q0 -55 31.5 -93t85.5 -38q52 0 111.5 30.5t107.5 84.5v145q-119 13 -174 13q-74 0 -118 -39t-44 -103z" />
<glyph unicode="&#xab;" horiz-adv-x="1077" d="M80 522q0 31 8 53l389 373q28 -11 53 -34.5t35 -49.5l-301 -340l314 -352q-10 -26 -35.5 -49.5t-53.5 -34.5l-401 381q-8 22 -8 53zM500 522q0 31 8 53l389 373q28 -11 53 -34.5t35 -49.5l-301 -340l313 -352q-10 -26 -35 -49.5t-53 -34.5l-401 381q-8 22 -8 53z" />
<glyph unicode="&#xac;" d="M102 606q0 38 9 72h837l15 -12v-441q-30 -6 -76 -6q-41 0 -76 6v236q0 10 1 38t1 40q-13 0 -41 -1t-37 -1h-624q-9 27 -9 69z" />
<glyph unicode="&#xad;" horiz-adv-x="686" d="M100 541q0 39 9 73h471q6 -35 6 -73q0 -41 -6 -68h-471q-9 27 -9 68z" />
<glyph unicode="&#xae;" horiz-adv-x="1204" d="M78 997q0 144 69.5 265t189.5 190.5t263 69.5q144 0 264.5 -69.5t190 -190.5t69.5 -265t-69.5 -264t-190 -189t-264.5 -69q-143 0 -263 69t-189.5 189t-69.5 264zM195 997q0 -174 117 -294.5t288 -120.5q174 0 292 120.5t118 294.5t-118 296t-292 122q-171 0 -288 -122 t-117 -296zM410 745v506l6 6q152 5 196 5q93 0 142 -41t49 -115q0 -51 -30.5 -85t-74.5 -48q8 -4 16 -10t13 -10.5t12 -15.5t9 -14.5t9.5 -17.5t8.5 -16l33 -58q20 -37 43 -55q-21 -41 -72 -41q-42 0 -72 62l-53 100q-21 43 -65 43h-64v-195q-53 -15 -106 0zM516 1026h86 q47 0 69.5 21t22.5 55q0 33 -21 54.5t-63 21.5h-94v-152z" />
<glyph unicode="&#xaf;" horiz-adv-x="815" d="M129 1249q0 40 6 70h545q6 -30 6 -70q0 -38 -6 -65h-545q-6 27 -6 65z" />
<glyph unicode="&#xb0;" horiz-adv-x="643" d="M41 1087q0 122 80.5 203.5t200.5 81.5t200 -81.5t80 -203.5t-80 -203t-200 -81t-200.5 81.5t-80.5 202.5zM168 1087q0 -74 42 -121.5t112 -47.5q68 0 109.5 47.5t41.5 121.5q0 73 -41.5 121.5t-109.5 48.5q-69 0 -111.5 -48.5t-42.5 -121.5z" />
<glyph unicode="&#xb1;" d="M135 70q0 31 6 71h803q6 -40 6 -71q0 -32 -6 -70h-803q-6 38 -6 70zM135 684q0 36 6 70h252q10 0 37 -1t39 -1q0 12 -1 39.5t-1 37.5v256q40 7 76 7q40 0 75 -7v-256q0 -10 -1 -37.5t-1 -39.5q10 0 38 1t38 1h252q6 -34 6 -70q0 -43 -6 -70h-252q-10 0 -38 1t-38 1 q0 -13 1 -40.5t1 -36.5v-260q-35 -7 -75 -7q-36 0 -76 7v260q0 9 1 36.5t1 40.5q-12 0 -39 -1t-37 -1h-252q-6 27 -6 70z" />
<glyph unicode="&#xb2;" horiz-adv-x="860" d="M131 799q0 57 46.5 123t121.5 125l129 106q62 49 87.5 87t25.5 89q0 56 -37 92.5t-94 36.5q-52 0 -94 -34.5t-68 -92.5q-30 5 -60 20t-43 33q32 83 103.5 138t171.5 55q117 0 189.5 -72.5t72.5 -173.5q0 -61 -23 -111.5t-55.5 -84.5t-89.5 -80l-115 -92 q-99 -81 -118 -132q76 9 141 9h283q0 -33 -3 -60q-10 -63 -69 -63h-455q-1 1 -8 9l-10.5 12t-10 12.5t-10 15.5t-6 16t-2.5 17z" />
<glyph unicode="&#xb3;" horiz-adv-x="860" d="M121 791q9 61 51 98q106 -68 203 -68q83 0 135.5 42.5t52.5 123.5q0 74 -41 120t-114 46q-49 0 -101 -25q-41 16 -51 74l176 187q35 39 72 63l-4 6q-55 -10 -160 -10h-182q-6 30 -6 57q0 37 8 58h483q23 -38 23 -72q0 -28 -23 -51l-135 -142q-23 -26 -59 -51h12 q103 0 172 -71t69 -189q0 -70 -27.5 -125.5t-73 -88t-99.5 -49.5t-111 -17q-165 0 -270 84z" />
<glyph unicode="&#xb4;" horiz-adv-x="815" d="M274 1163l281 316q40 -12 75 -44.5t50 -70.5l-334 -266q-23 6 -43 24.5t-29 40.5z" />
<glyph unicode="&#xb6;" horiz-adv-x="1284" d="M104 971q0 213 123.5 324.5t327.5 111.5q76 0 190 -6l13 -12v-1250q0 -130 -17.5 -212.5t-68.5 -139.5q-88 -100 -262 -100q-63 0 -134 14.5t-114 32.5q0 29 13 66t30 59q100 -45 192 -45q112 0 162 69q41 58 41 236v413h-45q-205 0 -328 114.5t-123 324.5zM895 -274 v1660l12 13h310q7 -25 7 -69.5t-7 -69.5h-97q-47 0 -67 2v-1536q-40 -7 -80 -7q-43 0 -78 7z" />
<glyph unicode="&#xb7;" horiz-adv-x="595" d="M182 578q0 21 5 50t12 40q40 22 98 22q24 0 56 -7t44 -15q7 -11 12 -40t5 -50q0 -60 -17 -91q-10 -7 -42.5 -13.5t-57.5 -6.5q-62 0 -98 20q-17 31 -17 91z" />
<glyph unicode="&#xb8;" horiz-adv-x="815" d="M246 -410q2 43 37 91q49 -29 106 -29q51 0 75.5 25.5t24.5 64.5t-24.5 63.5t-73.5 24.5q-28 0 -51 -10q-23 10 -31 33q20 76 53 147h115q-24 -49 -35 -82q78 -6 129.5 -53.5t51.5 -124.5q0 -81 -64 -135t-160 -54q-97 0 -153 39z" />
<glyph unicode="&#xb9;" horiz-adv-x="860" d="M152 1292q184 106 260 271q31 8 65 8q26 0 62 -8v-729q10 0 47 1t49 1h74q6 -24 6 -56q0 -29 -6 -59h-514q-7 40 -7 59q0 28 7 56h116q11 0 46.5 -1t48.5 -1v411q0 31 4 109q-67 -90 -203 -150q-21 12 -36.5 36.5t-18.5 51.5z" />
<glyph unicode="&#xba;" horiz-adv-x="796" d="M66 1024q0 201 112 319q86 80 219 80q135 0 221 -80q111 -120 111 -319q0 -202 -111 -322q-85 -79 -221 -79q-134 0 -219 79q-112 118 -112 322zM207 1024q0 -59 10 -109t31.5 -91.5t60 -65t90.5 -23.5q67 0 111.5 42t62 104.5t17.5 142.5q0 79 -17.5 141.5t-62 106 t-111.5 43.5q-52 0 -90.5 -24.5t-60 -66.5t-31.5 -92t-10 -108z" />
<glyph unicode="&#xbb;" horiz-adv-x="1077" d="M80 864q12 26 37 50t53 34l399 -381q9 -20 9 -52t-9 -54l-387 -373q-28 10 -53 34t-37 50l303 340zM500 864q12 26 37 50t53 34l399 -381q9 -20 9 -52t-9 -54l-387 -373q-28 10 -53 34t-37 50l303 340z" />
<glyph unicode="&#xbc;" horiz-adv-x="1814" d="M84 1128q184 106 260 271q31 8 66 8q25 0 61 -8v-729q10 0 47 1t49 1h74q6 -24 6 -56q0 -29 -6 -59h-514q-6 35 -6 59q0 32 6 56h117q11 0 46 -1t48 -1v411q0 31 4 109q-67 -90 -203 -150q-21 12 -36.5 36.5t-18.5 51.5zM520 0l772 1399q25 11 76 11t76 -11l-770 -1399 q-26 -10 -77.5 -10t-76.5 10zM1096 248q0 28 30 90l244 512q31 5 69.5 -4t55.5 -27l-182 -395q-50 -102 -74 -135l2 -4q45 2 119 2h94v147q0 42 23 67t59 25h45l2 -4v-235h135q6 -21 6 -54q0 -41 -12 -65h-129v-168q-19 -8 -61 -8q-44 0 -68 8v168h-328q-30 49 -30 80z" />
<glyph unicode="&#xbd;" horiz-adv-x="1814" d="M84 1128q184 106 260 271q31 8 66 8q25 0 61 -8v-729q10 0 47 1t49 1h74q6 -24 6 -56q0 -29 -6 -59h-514q-6 35 -6 59q0 32 6 56h117q11 0 46 -1t48 -1v411q0 31 4 109q-67 -90 -203 -150q-21 12 -36.5 36.5t-18.5 51.5zM487 0l773 1399q25 11 75.5 11t75.5 -11 l-770 -1399q-26 -10 -77.5 -10t-76.5 10zM1135 76q0 57 46.5 123t121.5 125l129 106q62 49 87 87t25 89q0 56 -37 92.5t-94 36.5q-52 0 -94 -34.5t-68 -92.5q-30 5 -59.5 20t-42.5 34q32 83 103 137.5t171 54.5q117 0 190 -72.5t73 -173.5q0 -61 -23 -111.5t-55.5 -84.5 t-89.5 -80l-115 -92q-101 -83 -119 -131q68 8 141 8h283q0 -42 -2 -60q-10 -63 -70 -63h-454q-1 1 -8 9l-10.5 12t-10 12.5t-10 15.5t-6 16t-2.5 17z" />
<glyph unicode="&#xbe;" horiz-adv-x="1814" d="M113 631q9 61 51 98q105 -67 203 -67q83 0 135.5 42t52.5 123q0 74 -41.5 120t-114.5 46q-50 0 -100 -24q-41 17 -51 73l176 187q35 39 72 63l-4 6q-55 -10 -160 -10h-182q-7 35 -7 58q0 33 9 57h483q22 -37 22 -72q0 -29 -22 -51l-135 -141q-24 -26 -60 -52h13 q103 0 172 -71t69 -189q0 -70 -27.5 -125.5t-73 -88t-99.5 -49.5t-111 -17q-165 0 -270 84zM506 0l772 1399q25 11 76 11t76 -11l-771 -1399q-26 -10 -77 -10t-76 10zM1104 248q0 26 31 90l243 512q31 5 69.5 -4t55.5 -27l-182 -395q-50 -102 -74 -135l2 -4q45 2 119 2h94 v147q0 42 23 67t59 25h45l2 -4v-235h135q7 -25 7 -54q0 -39 -13 -65h-129v-168q-19 -8 -61 -8q-44 0 -68 8v168h-327q-31 51 -31 80z" />
<glyph unicode="&#xbf;" horiz-adv-x="782" d="M20 -82q0 238 267 391l131 76l14 238q24 8 57 8q40 0 64 -8l8 -306l-14 -18l-92 -49q-132 -71 -200.5 -147t-68.5 -171q0 -96 61 -153.5t163 -57.5q124 0 284 78q20 -20 36.5 -54.5t19.5 -66.5q-184 -96 -373 -96q-159 0 -258 91.5t-99 244.5zM379 915q0 57 14 82 q38 23 99 23t94 -23q16 -22 16 -82q0 -59 -16 -81q-35 -21 -94 -21t-99 21q-14 24 -14 81z" />
<glyph unicode="&#xc0;" horiz-adv-x="1220" d="M53 8l469 1391q35 6 90 6q59 0 86 -6l469 -1391q-33 -20 -92 -20q-39 0 -59 17t-35 65l-98 295q-19 0 -80 -1.5t-64 -1.5h-274q-5 0 -64.5 1.5t-78.5 1.5l-119 -367q-27 -6 -70 -6q-34 0 -76 10zM352 1669q6 41 28 80.5t50 56.5l391 -227q-13 -62 -49 -86zM367 498 q18 0 66 1t52 1h236q2 0 50 -1t69 -1l-129 389q-77 239 -105 342h-10q-32 -128 -70 -244z" />
<glyph unicode="&#xc1;" horiz-adv-x="1220" d="M53 8l469 1391q35 6 90 6q59 0 86 -6l469 -1391q-33 -20 -92 -20q-39 0 -59 17t-35 65l-98 295q-19 0 -80 -1.5t-64 -1.5h-274q-5 0 -64.5 1.5t-78.5 1.5l-119 -367q-27 -6 -70 -6q-34 0 -76 10zM367 498q18 0 66 1t52 1h236q2 0 50 -1t69 -1l-129 389q-77 239 -105 342 h-10q-32 -128 -70 -244zM430 1579l391 227q27 -17 48.5 -56t29.5 -81l-420 -176q-19 13 -32.5 37.5t-16.5 48.5z" />
<glyph unicode="&#xc2;" horiz-adv-x="1220" d="M53 8l469 1391q35 6 90 6q59 0 86 -6l469 -1391q-33 -20 -92 -20q-39 0 -59 17t-35 65l-98 295q-19 0 -80 -1.5t-64 -1.5h-274q-5 0 -64.5 1.5t-78.5 1.5l-119 -367q-27 -6 -70 -6q-34 0 -76 10zM309 1573l228 221q72 11 145 0l227 -211q-9 -26 -30.5 -46t-44.5 -26 l-224 154l-231 -166q-23 10 -43.5 30.5t-26.5 43.5zM367 498q18 0 66 1t52 1h236q2 0 50 -1t69 -1l-129 389q-77 239 -105 342h-10q-32 -128 -70 -244z" />
<glyph unicode="&#xc3;" horiz-adv-x="1220" d="M53 8l469 1391q35 6 90 6q59 0 86 -6l469 -1391q-33 -20 -92 -20q-39 0 -59 17t-35 65l-98 295q-19 0 -80 -1.5t-64 -1.5h-274q-5 0 -64.5 1.5t-78.5 1.5l-119 -367q-27 -6 -70 -6q-34 0 -76 10zM262 1587l17 41q26 62 76.5 97.5t109.5 35.5q52 0 110 -28l125 -60 q36 -18 70 -18q42 0 86 51l25 33q24 -1 45 -15.5t32 -35.5l-16 -39q-30 -65 -79.5 -98t-106.5 -33q-53 0 -111 28l-125 60q-41 18 -69 18q-43 0 -86 -51l-25 -33q-25 1 -47 14.5t-31 32.5zM367 498q18 0 66 1t52 1h236q2 0 50 -1t69 -1l-129 389q-77 239 -105 342h-10 q-32 -128 -70 -244z" />
<glyph unicode="&#xc4;" horiz-adv-x="1220" d="M53 8l469 1391q35 6 90 6q59 0 86 -6l469 -1391q-33 -20 -92 -20q-39 0 -59 17t-35 65l-98 295q-19 0 -80 -1.5t-64 -1.5h-274q-5 0 -64.5 1.5t-78.5 1.5l-119 -367q-27 -6 -70 -6q-34 0 -76 10zM309 1602q0 29 13 73q34 17 86 17q57 0 84 -17q14 -38 14 -73 q0 -38 -14 -76q-23 -17 -84 -17q-58 0 -86 17q-13 44 -13 76zM367 498q18 0 66 1t52 1h236q2 0 50 -1t69 -1l-129 389q-77 239 -105 342h-10q-32 -128 -70 -244zM713 1602q0 37 16 73q27 17 84 17q52 0 86 -17q12 -40 12 -73q0 -36 -12 -76q-28 -17 -86 -17q-61 0 -84 17 q-16 36 -16 76z" />
<glyph unicode="&#xc5;" horiz-adv-x="1220" d="M53 8l467 1383q-62 26 -97.5 79.5t-35.5 120.5q0 89 64 152t159 63q97 0 161.5 -63t64.5 -152q0 -67 -37 -121t-99 -79l467 -1383q-33 -20 -92 -20q-39 0 -59 17t-35 65l-98 295q-19 0 -80 -1.5t-64 -1.5h-274q-5 0 -64.5 1.5t-78.5 1.5l-119 -367q-27 -6 -70 -6 q-34 0 -76 10zM367 498q18 0 66 1t52 1h236q2 0 50 -1t69 -1l-129 389q-77 239 -105 342h-10q-32 -128 -70 -244zM506 1591q0 -51 29.5 -83.5t74.5 -32.5t75 32.5t30 83.5q0 49 -30.5 82t-74.5 33t-74 -33t-30 -82z" />
<glyph unicode="&#xc6;" horiz-adv-x="1783" d="M43 8l709 1374q38 17 94 17h792q4 -25 4 -64q0 -41 -12 -71h-522h-123q0 -26 1 -63t1 -64v-363q23 0 64.5 1t56.5 1h424q6 -37 6 -67q0 -33 -6 -68h-424q-78 0 -121 2v-432q0 -15 -1 -40t-1 -38q74 4 125 4h561q0 -42 -4 -65q-12 -72 -100 -72h-643q-41 0 -65.5 27.5 t-24.5 74.5v263q-19 0 -75.5 -1.5t-58.5 -1.5h-184q-3 0 -54.5 1.5t-70.5 1.5l-186 -367q-35 -6 -82 -6q-34 0 -76 10zM459 498q18 0 56 1t40 1h147q2 0 57.5 -1t74.5 -1v733l-3 -2h-10q-21 -51 -112 -244z" />
<glyph unicode="&#xc7;" horiz-adv-x="1228" d="M117 692q0 184 43 327t118 229.5t170.5 130.5t206.5 44q107 0 199 -33.5t152 -88.5t93.5 -123.5t33.5 -139.5q0 -92 -89 -92q-33 0 -69 10q1 46 -8.5 91t-33 90t-59.5 79t-92.5 55t-126.5 21q-180 0 -276 -153.5t-96 -446.5q0 -273 98.5 -426t271.5 -153q188 0 375 161 q29 -17 53 -45.5t33 -56.5q-75 -76 -181 -127.5t-228 -64.5q-19 -38 -27 -62q79 -6 130.5 -53.5t51.5 -124.5q0 -81 -64.5 -135t-160.5 -54q-98 0 -154 39q3 46 39 91q45 -29 105 -29q52 0 77 25.5t25 64.5t-25 63.5t-75 24.5q-26 0 -49 -10q-10 5 -20 14.5t-13 18.5 q18 65 43 124q-99 7 -179 50t-134 110.5t-90 157.5t-52 189t-16 208z" />
<glyph unicode="&#xc8;" horiz-adv-x="1153" d="M203 102v1284l12 13h791q4 -25 4 -64q0 -37 -11 -71h-522q-10 0 -34.5 -0.5t-47.5 -0.5t-43 1q0 -26 1 -63t1 -64v-363q24 0 66 1t57 1h424q6 -37 6 -67q0 -33 -6 -68h-424q-78 0 -123 2v-432q0 -15 -1 -40t-1 -38q70 4 127 4h561q0 -42 -4 -65q-15 -72 -100 -72h-645 q-40 0 -64 27.5t-24 74.5zM354 1669q6 41 28 80.5t50 56.5l391 -227q-13 -62 -49 -86z" />
<glyph unicode="&#xc9;" horiz-adv-x="1153" d="M203 102v1284l12 13h791q4 -25 4 -64q0 -37 -11 -71h-522q-10 0 -34.5 -0.5t-47.5 -0.5t-43 1q0 -26 1 -63t1 -64v-363q24 0 66 1t57 1h424q6 -37 6 -67q0 -33 -6 -68h-424q-78 0 -123 2v-432q0 -15 -1 -40t-1 -38q70 4 127 4h561q0 -42 -4 -65q-15 -72 -100 -72h-645 q-40 0 -64 27.5t-24 74.5zM432 1579l391 227q27 -17 48.5 -56t29.5 -81l-420 -176q-19 13 -32.5 37.5t-16.5 48.5z" />
<glyph unicode="&#xca;" horiz-adv-x="1153" d="M203 102v1284l12 13h791q4 -25 4 -64q0 -37 -11 -71h-522q-10 0 -34.5 -0.5t-47.5 -0.5t-43 1q0 -26 1 -63t1 -64v-363q24 0 66 1t57 1h424q6 -37 6 -67q0 -33 -6 -68h-424q-78 0 -123 2v-432q0 -15 -1 -40t-1 -38q70 4 127 4h561q0 -42 -4 -65q-15 -72 -100 -72h-645 q-40 0 -64 27.5t-24 74.5zM311 1573l228 221q72 11 145 0l227 -211q-9 -26 -30.5 -46t-44.5 -26l-224 154l-231 -166q-23 10 -43.5 30.5t-26.5 43.5z" />
<glyph unicode="&#xcb;" horiz-adv-x="1153" d="M203 102v1284l12 13h791q4 -25 4 -64q0 -37 -11 -71h-522q-10 0 -34.5 -0.5t-47.5 -0.5t-43 1q0 -26 1 -63t1 -64v-363q24 0 66 1t57 1h424q6 -37 6 -67q0 -33 -6 -68h-424q-78 0 -123 2v-432q0 -15 -1 -40t-1 -38q70 4 127 4h561q0 -42 -4 -65q-15 -72 -100 -72h-645 q-40 0 -64 27.5t-24 74.5zM311 1602q0 29 13 73q34 17 86 17q57 0 84 -17q14 -38 14 -73q0 -38 -14 -76q-23 -17 -84 -17q-58 0 -86 17q-13 44 -13 76zM715 1602q0 37 16 73q27 17 84 17q52 0 86 -17q12 -40 12 -73q0 -36 -12 -76q-28 -17 -86 -17q-61 0 -84 17 q-16 36 -16 76z" />
<glyph unicode="&#xcc;" horiz-adv-x="577" d="M31 1669q6 41 28 80.5t50 56.5l391 -227q-13 -62 -49 -86zM211 0v1399q27 6 76 6q45 0 80 -6v-1399q-35 -6 -80 -6q-49 0 -76 6z" />
<glyph unicode="&#xcd;" horiz-adv-x="577" d="M109 1579l391 227q27 -17 48.5 -56t29.5 -81l-420 -176q-19 13 -32.5 37.5t-16.5 48.5zM211 0v1399q27 6 76 6q45 0 80 -6v-1399q-35 -6 -80 -6q-49 0 -76 6z" />
<glyph unicode="&#xce;" horiz-adv-x="577" d="M-12 1573l227 221q73 11 145 0l228 -211q-9 -26 -31 -46t-45 -26l-223 154l-232 -166q-23 10 -43 30t-26 44zM211 0v1399q27 6 76 6q45 0 80 -6v-1399q-35 -6 -80 -6q-49 0 -76 6z" />
<glyph unicode="&#xcf;" horiz-adv-x="577" d="M-12 1602q0 32 12 73q34 17 86 17q57 0 84 -17q14 -38 14 -73q0 -38 -14 -76q-23 -17 -84 -17q-58 0 -86 17q-12 40 -12 76zM211 0v1399q27 6 76 6q45 0 80 -6v-1399q-35 -6 -80 -6q-49 0 -76 6zM391 1602q0 35 17 73q27 17 84 17q52 0 86 -17q12 -40 12 -73 q0 -36 -12 -76q-28 -17 -86 -17q-61 0 -84 17q-17 38 -17 76z" />
<glyph unicode="&#xd0;" horiz-adv-x="1339" d="M59 707q0 29 7 69h170v610l12 13q178 6 416 6q88 0 186 -27t158 -78q123 -105 167 -250.5t44 -349.5q0 -207 -43.5 -353t-167.5 -251q-60 -51 -157.5 -77.5t-186.5 -26.5q-60 0 -416 8l-12 12v629h-170q-7 35 -7 66zM391 125q53 0 138.5 -1t132.5 -1q71 0 129 18.5 t98 49.5t70 77t47.5 94.5t28.5 109t14.5 113.5t3.5 115t-3.5 115.5t-14.5 113.5t-28.5 108t-47.5 93.5t-70 76t-98 49t-129 18.5q-47 0 -132.5 1t-138.5 1v-500h348q6 -34 6 -69q0 -36 -6 -66h-348v-516z" />
<glyph unicode="&#xd1;" horiz-adv-x="1374" d="M203 0v1399q38 6 92 6q57 0 98 -6l498 -928q30 -56 77.5 -155t65.5 -134h6q-14 263 -14 467v654q0 56 16.5 79t65.5 23h53l13 -10v-1395q-40 -6 -97 -6t-98 6l-498 928q-61 115 -139 282h-6q12 -381 12 -442v-768q-44 -6 -74 -6q-33 0 -71 6zM344 1587l16 41 q26 62 77 97.5t110 35.5q52 0 110 -28l125 -60q36 -18 70 -18q42 0 86 51l25 33q24 -1 45 -15.5t32 -35.5l-16 -39q-30 -65 -79.5 -98t-106.5 -33q-53 0 -111 28l-125 60q-40 18 -70 18q-43 0 -86 -51l-24 -33q-25 1 -47 14.5t-31 32.5z" />
<glyph unicode="&#xd2;" horiz-adv-x="1337" d="M117 700q0 184 52.5 345.5t164.5 259.5q131 118 334 118q205 0 336 -118q111 -99 164 -260.5t53 -344.5q0 -185 -53 -346t-164 -260q-132 -119 -336 -119q-202 0 -334 119q-112 98 -164.5 259t-52.5 347zM283 700q0 -86 10 -164.5t36.5 -159t68 -138.5t111 -95t159.5 -37 q65 0 119.5 19t93.5 52t69.5 79.5t49.5 98t31 112t17 117t5 116.5q0 87 -9.5 164.5t-36 158t-68.5 138.5t-111.5 94.5t-159.5 36.5q-65 0 -119 -19t-93 -51.5t-69.5 -79t-50 -97.5t-31.5 -111.5t-17 -117t-5 -116.5zM410 1669q6 42 28 81t49 56l392 -227q-13 -61 -50 -86z " />
<glyph unicode="&#xd3;" horiz-adv-x="1337" d="M117 700q0 184 52.5 345.5t164.5 259.5q131 118 334 118q205 0 336 -118q111 -99 164 -260.5t53 -344.5q0 -185 -53 -346t-164 -260q-132 -119 -336 -119q-202 0 -334 119q-112 98 -164.5 259t-52.5 347zM283 700q0 -86 10 -164.5t36.5 -159t68 -138.5t111 -95t159.5 -37 q65 0 119.5 19t93.5 52t69.5 79.5t49.5 98t31 112t17 117t5 116.5q0 87 -9.5 164.5t-36 158t-68.5 138.5t-111.5 94.5t-159.5 36.5q-65 0 -119 -19t-93 -51.5t-69.5 -79t-50 -97.5t-31.5 -111.5t-17 -117t-5 -116.5zM487 1579l392 227q27 -17 48 -55.5t29 -81.5l-419 -176 q-19 13 -33 38t-17 48z" />
<glyph unicode="&#xd4;" horiz-adv-x="1337" d="M117 700q0 184 52.5 345.5t164.5 259.5q131 118 334 118q205 0 336 -118q111 -99 164 -260.5t53 -344.5q0 -185 -53 -346t-164 -260q-132 -119 -336 -119q-202 0 -334 119q-112 98 -164.5 259t-52.5 347zM283 700q0 -86 10 -164.5t36.5 -159t68 -138.5t111 -95t159.5 -37 q65 0 119.5 19t93.5 52t69.5 79.5t49.5 98t31 112t17 117t5 116.5q0 87 -9.5 164.5t-36 158t-68.5 138.5t-111.5 94.5t-159.5 36.5q-65 0 -119 -19t-93 -51.5t-69.5 -79t-50 -97.5t-31.5 -111.5t-17 -117t-5 -116.5zM367 1573l227 221q73 11 145 0l228 -211q-9 -26 -31 -46 t-45 -26l-223 154l-232 -166q-23 10 -43 30t-26 44z" />
<glyph unicode="&#xd5;" horiz-adv-x="1337" d="M117 700q0 184 52.5 345.5t164.5 259.5q131 118 334 118q205 0 336 -118q111 -99 164 -260.5t53 -344.5q0 -185 -53 -346t-164 -260q-132 -119 -336 -119q-202 0 -334 119q-112 98 -164.5 259t-52.5 347zM283 700q0 -86 10 -164.5t36.5 -159t68 -138.5t111 -95t159.5 -37 q65 0 119.5 19t93.5 52t69.5 79.5t49.5 98t31 112t17 117t5 116.5q0 87 -9.5 164.5t-36 158t-68.5 138.5t-111.5 94.5t-159.5 36.5q-65 0 -119 -19t-93 -51.5t-69.5 -79t-50 -97.5t-31.5 -111.5t-17 -117t-5 -116.5zM334 1599l18 39q26 62 73 96.5t105 34.5q49 0 107 -28 l121 -58q36 -18 67 -18q42 0 82 53l25 29q25 -2 46 -14.5t30 -32.5l-19 -41q-28 -64 -76 -97.5t-102 -33.5q-52 0 -106 28l-121 62q-36 16 -68 16q-42 0 -82 -51l-24 -33q-26 2 -47.5 15t-28.5 34z" />
<glyph unicode="&#xd6;" horiz-adv-x="1337" d="M117 700q0 184 52.5 345.5t164.5 259.5q131 118 334 118q205 0 336 -118q111 -99 164 -260.5t53 -344.5q0 -185 -53 -346t-164 -260q-132 -119 -336 -119q-202 0 -334 119q-112 98 -164.5 259t-52.5 347zM283 700q0 -86 10 -164.5t36.5 -159t68 -138.5t111 -95t159.5 -37 q65 0 119.5 19t93.5 52t69.5 79.5t49.5 98t31 112t17 117t5 116.5q0 87 -9.5 164.5t-36 158t-68.5 138.5t-111.5 94.5t-159.5 36.5q-65 0 -119 -19t-93 -51.5t-69.5 -79t-50 -97.5t-31.5 -111.5t-17 -117t-5 -116.5zM367 1602q0 32 12 73q34 17 86 17q57 0 84 -17 q14 -38 14 -73q0 -38 -14 -76q-23 -17 -84 -17q-58 0 -86 17q-12 40 -12 76zM770 1602q0 37 16 73q27 17 84 17q52 0 86 -17q13 -44 13 -73q0 -32 -13 -76q-28 -17 -86 -17q-61 0 -84 17q-16 36 -16 76z" />
<glyph unicode="&#xd7;" d="M164 319l229 228l49 47q-5 5 -16 15.5t-19.5 19t-13.5 14.5l-229 227q15 38 41 64q25 29 61 41l230 -232q15 -21 47 -49l47 49l229 232q42 -21 60 -39q29 -29 43 -66l-232 -227l-49 -49l49 -47l232 -228q-13 -35 -41 -63q-30 -30 -62 -41l-229 231q-13 11 -47 50l-47 -50 l-230 -231q-30 12 -59 41q-31 31 -43 63z" />
<glyph unicode="&#xd8;" horiz-adv-x="1337" d="M117 700q0 183 53 344.5t164 260.5q131 118 334 118q162 0 272 -71l76 133q29 -3 62 -21t48 -39l-86 -157q92 -100 136.5 -251t44.5 -317q0 -185 -53 -346t-164 -260q-132 -119 -336 -119q-161 0 -273 72l-73 -133q-29 3 -62.5 21t-48.5 40l86 154q-92 102 -136 252 t-44 319zM281 700q0 -273 94 -428l497 957q-86 63 -204 63q-90 0 -159.5 -36.5t-111.5 -94.5t-69 -138t-37 -158.5t-10 -164.5zM463 170q87 -64 205 -64q90 0 160 37t112 95t68.5 138.5t36.5 159t10 164.5q0 270 -92 424z" />
<glyph unicode="&#xd9;" horiz-adv-x="1363" d="M186 477v916l13 12h61q50 0 66 -23.5t16 -78.5v-824q0 -181 89.5 -278t250.5 -97q162 0 251 96.5t89 278.5v920q30 6 76 6q48 0 82 -6v-922q0 -243 -136.5 -372.5t-363.5 -129.5q-224 0 -359 129.5t-135 372.5zM424 1669q6 41 28 80.5t50 56.5l391 -227q-13 -62 -49 -86z " />
<glyph unicode="&#xda;" horiz-adv-x="1363" d="M186 477v916l13 12h61q50 0 66 -23.5t16 -78.5v-824q0 -181 89.5 -278t250.5 -97q162 0 251 96.5t89 278.5v920q30 6 76 6q48 0 82 -6v-922q0 -243 -136.5 -372.5t-363.5 -129.5q-224 0 -359 129.5t-135 372.5zM502 1579l391 227q27 -17 48.5 -56t29.5 -81l-420 -176 q-19 13 -32.5 37.5t-16.5 48.5z" />
<glyph unicode="&#xdb;" horiz-adv-x="1363" d="M186 477v916l13 12h61q50 0 66 -23.5t16 -78.5v-824q0 -181 89.5 -278t250.5 -97q162 0 251 96.5t89 278.5v920q30 6 76 6q48 0 82 -6v-922q0 -243 -136.5 -372.5t-363.5 -129.5q-224 0 -359 129.5t-135 372.5zM381 1573l227 221q73 11 146 0l227 -211q-9 -26 -31 -46 t-45 -26l-223 154l-231 -166q-23 10 -43.5 30.5t-26.5 43.5z" />
<glyph unicode="&#xdc;" horiz-adv-x="1363" d="M186 477v916l13 12h61q50 0 66 -23.5t16 -78.5v-824q0 -181 89.5 -278t250.5 -97q162 0 251 96.5t89 278.5v920q30 6 76 6q48 0 82 -6v-922q0 -243 -136.5 -372.5t-363.5 -129.5q-224 0 -359 129.5t-135 372.5zM381 1602q0 32 12 73q34 17 86 17q57 0 84 -17 q15 -40 15 -73q0 -36 -15 -76q-23 -17 -84 -17q-58 0 -86 17q-12 40 -12 76zM784 1602q0 35 17 73q27 17 84 17q52 0 86 -17q12 -40 12 -73q0 -36 -12 -76q-28 -17 -86 -17q-61 0 -84 17q-17 38 -17 76z" />
<glyph unicode="&#xdd;" horiz-adv-x="985" d="M31 1380q53 33 102 33q59 0 86 -76l197 -475q27 -61 84 -235h10q9 31 26 79t36 98t22 58l213 537q31 8 70 8q37 0 75 -10l6 -13l-385 -929v-455q-35 -6 -79 -6q-48 0 -78 6v461zM319 1579l392 227q27 -17 48 -55.5t29 -81.5l-419 -176q-19 13 -33 38t-17 48z" />
<glyph unicode="&#xde;" horiz-adv-x="1146" d="M203 0v1399q30 6 76 6q49 0 79 -6v-217q156 4 244 4q204 0 328.5 -113t124.5 -325q0 -211 -124 -326t-329 -115h-244v-307q-30 -6 -79 -6q-46 0 -76 6zM358 438q46 0 136.5 1t111.5 1q65 0 115.5 19t81 49.5t50 72t27 82.5t7.5 85q0 45 -7.5 86t-27 82t-50 70.5t-81 48 t-115.5 18.5q-162 0 -248 2v-617z" />
<glyph unicode="&#xdf;" horiz-adv-x="1251" d="M43 899q0 34 6 64l176 -5v86q0 182 117 284t307 102q191 0 304.5 -108.5t113.5 -289.5q0 -72 -31 -160h-4l4 -2q-95 -24 -140.5 -71t-45.5 -94q0 -63 92 -140l76 -61q153 -133 153 -260q0 -113 -97.5 -191t-252.5 -78q-60 0 -131.5 16t-124.5 44q2 27 20 60.5t42 51.5 q90 -49 190 -49q84 0 138.5 40.5t54.5 103.5q0 72 -95 155l-84 70q-71 60 -105 113t-34 112q0 79 57.5 144.5t153.5 99.5q12 44 12 84q0 128 -69 210.5t-201 82.5q-134 0 -200 -75.5t-66 -209.5v-1028q-34 -6 -76 -6q-43 0 -78 6v834l-176 -3q-6 30 -6 68z" />
<glyph unicode="&#xe0;" horiz-adv-x="1032" d="M104 272q0 165 103 247.5t280 82.5q131 0 226 -18v102q0 111 -48 160t-137 49q-144 0 -333 -84q-22 19 -38 54t-16 65q218 96 402 96q158 0 237.5 -87.5t79.5 -254.5v-422q0 -73 11.5 -119t46.5 -80q-8 -22 -28 -44.5t-42 -32.5q-102 37 -127 143q-158 -154 -322 -154 q-140 0 -217.5 89t-77.5 208zM237 1364q15 38 50 70.5t75 44.5l281 -316q-9 -22 -29 -40.5t-43 -24.5zM258 283q0 -77 43.5 -128t118.5 -51q74 0 152.5 42t140.5 122v205q-98 14 -224 14q-107 0 -169 -53.5t-62 -150.5z" />
<glyph unicode="&#xe1;" horiz-adv-x="1032" d="M104 272q0 165 103 247.5t280 82.5q131 0 226 -18v102q0 111 -48 160t-137 49q-144 0 -333 -84q-22 19 -38 54t-16 65q218 96 402 96q158 0 237.5 -87.5t79.5 -254.5v-422q0 -73 11.5 -119t46.5 -80q-8 -22 -28 -44.5t-42 -32.5q-102 37 -127 143q-158 -154 -322 -154 q-140 0 -217.5 89t-77.5 208zM258 283q0 -77 43.5 -128t118.5 -51q74 0 152.5 42t140.5 122v205q-98 14 -224 14q-107 0 -169 -53.5t-62 -150.5zM362 1163l281 316q40 -12 75 -44.5t50 -70.5l-334 -266q-23 6 -43 24.5t-29 40.5z" />
<glyph unicode="&#xe2;" horiz-adv-x="1032" d="M104 272q0 165 103 247.5t280 82.5q131 0 226 -18v102q0 111 -48 160t-137 49q-144 0 -333 -84q-22 19 -38 54t-16 65q218 96 402 96q158 0 237.5 -87.5t79.5 -254.5v-422q0 -73 11.5 -119t46.5 -80q-8 -22 -28 -44.5t-42 -32.5q-102 37 -127 143q-158 -154 -322 -154 q-140 0 -217.5 89t-77.5 208zM213 1174l217 270q51 15 133 2l207 -260q-27 -55 -82 -74l-194 193l-207 -203q-50 20 -74 72zM258 283q0 -77 43.5 -128t118.5 -51q74 0 152.5 42t140.5 122v205q-98 14 -224 14q-107 0 -169 -53.5t-62 -150.5z" />
<glyph unicode="&#xe3;" horiz-adv-x="1032" d="M104 272q0 165 103 247.5t280 82.5q131 0 226 -18v102q0 111 -48 160t-137 49q-144 0 -333 -84q-22 19 -38 54t-16 65q218 96 402 96q158 0 237.5 -87.5t79.5 -254.5v-422q0 -73 11.5 -119t46.5 -80q-8 -22 -28 -44.5t-42 -32.5q-102 37 -127 143q-158 -154 -322 -154 q-140 0 -217.5 89t-77.5 208zM145 1212l19 41q28 63 76.5 98t107.5 35q53 0 111 -28l125 -60q36 -18 69 -18q44 0 84 53l27 31q25 -2 47 -15.5t31 -33.5l-19 -41q-30 -65 -79 -99t-105 -34q-53 0 -111 28l-125 62q-41 18 -69 18q-42 0 -84 -53l-27 -33q-26 2 -48.5 15 t-29.5 34zM258 283q0 -77 43.5 -128t118.5 -51q74 0 152.5 42t140.5 122v205q-98 14 -224 14q-107 0 -169 -53.5t-62 -150.5z" />
<glyph unicode="&#xe4;" horiz-adv-x="1032" d="M104 272q0 165 103 247.5t280 82.5q131 0 226 -18v102q0 111 -48 160t-137 49q-144 0 -333 -84q-22 19 -38 54t-16 65q218 96 402 96q158 0 237.5 -87.5t79.5 -254.5v-422q0 -73 11.5 -119t46.5 -80q-8 -22 -28 -44.5t-42 -32.5q-102 37 -127 143q-158 -154 -322 -154 q-140 0 -217.5 89t-77.5 208zM217 1241q0 35 14 70q29 18 80 18q50 0 82 -18q15 -38 15 -70q0 -36 -15 -70q-29 -18 -82 -18q-20 0 -45 5.5t-35 12.5q-14 35 -14 70zM258 283q0 -77 43.5 -128t118.5 -51q74 0 152.5 42t140.5 122v205q-98 14 -224 14q-107 0 -169 -53.5 t-62 -150.5zM580 1241q0 35 14 70q32 18 82 18q51 0 80 -18q14 -35 14 -70q0 -39 -14 -70q-25 -18 -80 -18q-53 0 -82 18q-14 35 -14 70z" />
<glyph unicode="&#xe5;" horiz-adv-x="1032" d="M104 272q0 165 103 247.5t280 82.5q131 0 226 -18v102q0 111 -48 160t-137 49q-144 0 -333 -84q-22 19 -38 54t-16 65q218 96 402 96q158 0 237.5 -87.5t79.5 -254.5v-422q0 -73 11.5 -119t46.5 -80q-8 -22 -28 -44.5t-42 -32.5q-102 37 -127 143q-158 -154 -322 -154 q-140 0 -217.5 89t-77.5 208zM258 283q0 -77 43.5 -128t118.5 -51q74 0 152.5 42t140.5 122v205q-98 14 -224 14q-107 0 -169 -53.5t-62 -150.5zM268 1315q0 89 65 152t161 63t160.5 -63t64.5 -152q0 -90 -64.5 -153.5t-160.5 -63.5t-161 63.5t-65 153.5zM389 1315 q0 -51 30 -84t75 -33t74.5 33t29.5 84q0 49 -30 82t-74 33t-74.5 -33t-30.5 -82z" />
<glyph unicode="&#xe6;" horiz-adv-x="1630" d="M104 274q0 164 102.5 246t280.5 82q106 0 226 -20v106q0 207 -185 207q-144 0 -333 -84q-22 19 -38 54t-16 65q218 96 400 96q203 0 276 -149q112 153 299 153q128 0 219 -60t133.5 -157t42.5 -221q0 -70 -8 -135h-635q5 -165 66 -256.5t196 -91.5q139 0 297 88 q21 -18 37 -49.5t19 -57.5q-73 -52 -171.5 -83.5t-199.5 -31.5q-234 0 -334 189q-68 -80 -166.5 -134.5t-212.5 -54.5q-95 0 -164 44.5t-100 110.5t-31 144zM258 285q0 -77 43.5 -129t118.5 -52q81 0 167 45.5t148 135.5q-18 80 -24 184q-105 18 -222 18q-107 0 -169 -52.5 t-62 -149.5zM868 573h488v23q0 66 -13.5 121.5t-41 100.5t-75 70t-110.5 25q-112 0 -176 -91t-72 -249z" />
<glyph unicode="&#xe7;" horiz-adv-x="960" d="M106 494q0 134 34.5 239.5t93 168.5t131 95.5t153.5 32.5q92 0 164 -30t111.5 -76.5t59 -94.5t19.5 -92q0 -45 -16 -69.5t-63 -24.5q-29 0 -66 6q3 47 -6.5 91t-32.5 82.5t-67.5 61.5t-106.5 23q-115 0 -182.5 -106.5t-67.5 -306.5q0 -192 68.5 -290t193.5 -98 q47 0 97.5 18.5t83.5 39t81 55.5q24 -14 45 -41.5t27 -54.5q-130 -123 -293 -143q-13 -24 -26 -62q79 -6 129.5 -53.5t50.5 -124.5q0 -82 -63.5 -135.5t-159.5 -53.5q-98 0 -154 39q3 46 39 91q45 -29 104 -29q52 0 76.5 25.5t24.5 64.5t-24.5 63.5t-74.5 24.5 q-26 0 -49 -10q-24 10 -32 33q15 59 43 127q-91 10 -159.5 57.5t-108 120.5t-58.5 157t-19 179z" />
<glyph unicode="&#xe8;" horiz-adv-x="1030" d="M106 504q0 233 109 379.5t301 146.5q96 0 172 -34t124 -94t73.5 -139t25.5 -171q0 -74 -10 -135h-635q10 -348 264 -348q139 0 297 86q21 -18 37 -48.5t19 -56.5q-73 -51 -172.5 -83t-200.5 -32q-89 0 -159 28.5t-115.5 76.5t-75 116.5t-42 144t-12.5 163.5zM266 573h492 v27q0 138 -59.5 225.5t-182.5 87.5q-113 0 -177.5 -92t-72.5 -248zM266 1364q15 38 50 70.5t75 44.5l281 -316q-9 -22 -29 -40.5t-43 -24.5z" />
<glyph unicode="&#xe9;" horiz-adv-x="1030" d="M106 504q0 233 109 379.5t301 146.5q96 0 172 -34t124 -94t73.5 -139t25.5 -171q0 -74 -10 -135h-635q10 -348 264 -348q139 0 297 86q21 -18 37 -48.5t19 -56.5q-73 -51 -172.5 -83t-200.5 -32q-89 0 -159 28.5t-115.5 76.5t-75 116.5t-42 144t-12.5 163.5zM266 573h492 v27q0 138 -59.5 225.5t-182.5 87.5q-113 0 -177.5 -92t-72.5 -248zM389 1163l281 316q40 -12 75 -44.5t50 -70.5l-334 -266q-23 6 -43 24.5t-29 40.5z" />
<glyph unicode="&#xea;" horiz-adv-x="1030" d="M106 504q0 233 109 379.5t301 146.5q96 0 172 -34t124 -94t73.5 -139t25.5 -171q0 -74 -10 -135h-635q10 -348 264 -348q139 0 297 86q21 -18 37 -48.5t19 -56.5q-73 -51 -172.5 -83t-200.5 -32q-89 0 -159 28.5t-115.5 76.5t-75 116.5t-42 144t-12.5 163.5zM242 1174 l217 270q51 15 133 2l207 -260q-27 -55 -82 -74l-194 193l-207 -203q-50 20 -74 72zM266 573h492v27q0 138 -59.5 225.5t-182.5 87.5q-113 0 -177.5 -92t-72.5 -248z" />
<glyph unicode="&#xeb;" horiz-adv-x="1030" d="M106 504q0 233 109 379.5t301 146.5q96 0 172 -34t124 -94t73.5 -139t25.5 -171q0 -74 -10 -135h-635q10 -348 264 -348q139 0 297 86q21 -18 37 -48.5t19 -56.5q-73 -51 -172.5 -83t-200.5 -32q-89 0 -159 28.5t-115.5 76.5t-75 116.5t-42 144t-12.5 163.5zM246 1241 q0 35 14 70q29 18 80 18q50 0 82 -18q14 -35 14 -70q0 -39 -14 -70q-29 -18 -82 -18q-20 0 -45 5.5t-35 12.5q-14 35 -14 70zM266 573h492v27q0 138 -59.5 225.5t-182.5 87.5q-113 0 -177.5 -92t-72.5 -248zM608 1241q0 32 15 70q32 18 82 18t79 -18q15 -37 15 -70 q0 -36 -15 -70q-25 -18 -79 -18q-53 0 -82 18q-15 38 -15 70z" />
<glyph unicode="&#xec;" horiz-adv-x="524" d="M-20 1364q16 38 50 70.5t74 44.5l281 -316q-9 -22 -29 -40.5t-43 -24.5zM86 946q0 28 8 55q82 11 103 11h16q64 0 99.5 -40t35.5 -108v-864q-30 -6 -74 -6q-47 0 -77 6v791q0 57 -18 77.5t-66 20.5h-19q-8 27 -8 57z" />
<glyph unicode="&#xed;" horiz-adv-x="524" d="M86 946q0 28 8 55q82 11 103 11h16q64 0 99.5 -40t35.5 -108v-864q-30 -6 -74 -6q-47 0 -77 6v791q0 57 -18 77.5t-66 20.5h-19q-8 27 -8 57zM102 1163l281 316q40 -12 75 -44.5t50 -70.5l-334 -266q-23 6 -43 24.5t-29 40.5z" />
<glyph unicode="&#xee;" horiz-adv-x="524" d="M-45 1174l217 270q51 15 133 2l207 -260q-27 -55 -82 -74l-194 193l-207 -203q-50 20 -74 72zM86 946q0 28 8 55q82 11 103 11h16q64 0 99.5 -40t35.5 -108v-864q-30 -6 -74 -6q-47 0 -77 6v791q0 57 -18 77.5t-66 20.5h-19q-8 27 -8 57z" />
<glyph unicode="&#xef;" horiz-adv-x="524" d="M-41 1241q0 35 14 70q29 18 80 18q50 0 82 -18q15 -38 15 -70q0 -36 -15 -70q-29 -18 -82 -18q-20 0 -45 5.5t-35 12.5q-14 35 -14 70zM86 946q0 28 8 55q82 11 103 11h16q64 0 99.5 -40t35.5 -108v-864q-30 -6 -74 -6q-47 0 -77 6v791q0 57 -18 77.5t-66 20.5h-19 q-8 27 -8 57zM322 1241q0 35 14 70q32 18 82 18q51 0 80 -18q14 -35 14 -70q0 -39 -14 -70q-25 -18 -80 -18q-53 0 -82 18q-14 35 -14 70z" />
<glyph unicode="&#xf0;" horiz-adv-x="1056" d="M102 492q0 126 33.5 223t110.5 174q108 108 278 108q99 0 191 -47q-52 148 -178 277l-213 -148q-21 13 -42 41.5t-22 50.5l193 134q-77 67 -187 118q6 31 24 60.5t40 40.5q128 -58 235 -142l180 125q21 -13 42 -41.5t22 -50.5l-160 -110q148 -151 225.5 -358t77.5 -451 q0 -265 -143 -412q-109 -109 -283 -109q-171 0 -280 109q-144 148 -144 408zM260 492q0 -79 13.5 -147t43 -126t83.5 -91.5t128 -33.5q73 0 127 34t84 93t44 127.5t14 147.5q0 159 -37 303q-102 78 -232 78q-59 0 -105.5 -21t-76.5 -56.5t-50 -85.5t-28 -104.5t-8 -117.5z " />
<glyph unicode="&#xf1;" horiz-adv-x="1116" d="M180 0v999l13 13h57q49 0 65.5 -25.5t16.5 -81.5v-28q69 66 163 105.5t189 39.5q137 0 200.5 -88.5t63.5 -231.5v-507q0 -117 23 -175q-32 -32 -97 -32q-42 0 -59.5 24t-17.5 76v567q0 125 -32 177.5t-118 52.5q-79 0 -167 -44.5t-148 -113.5v-727q-30 -6 -74 -6 q-48 0 -78 6zM219 1212l19 41q28 63 76.5 98t107.5 35q52 0 110 -28l125 -60q36 -18 70 -18q44 0 84 53l27 31q25 -2 46.5 -15.5t30.5 -33.5l-18 -41q-30 -65 -79 -99t-105 -34q-53 0 -111 28l-125 62q-41 18 -69 18q-42 0 -84 -53l-27 -33q-26 2 -48.5 15t-29.5 34z" />
<glyph unicode="&#xf2;" horiz-adv-x="1062" d="M106 502q0 270 144 418q107 110 280 110q176 0 283 -110q143 -147 143 -418t-143 -418q-109 -109 -283 -109q-171 0 -280 109q-144 148 -144 418zM264 502q0 -81 13.5 -150t43 -129t83.5 -94.5t128 -34.5q73 0 127 34.5t84 94t44 129t14 150.5q0 80 -14 149.5t-44 129.5 t-84 95t-127 35q-74 0 -128 -35t-83.5 -95t-43 -129.5t-13.5 -149.5zM274 1364q15 38 50 70.5t75 44.5l281 -316q-9 -22 -29 -40.5t-43 -24.5z" />
<glyph unicode="&#xf3;" horiz-adv-x="1062" d="M106 502q0 270 144 418q107 110 280 110q176 0 283 -110q143 -147 143 -418t-143 -418q-109 -109 -283 -109q-171 0 -280 109q-144 148 -144 418zM264 502q0 -81 13.5 -150t43 -129t83.5 -94.5t128 -34.5q73 0 127 34.5t84 94t44 129t14 150.5q0 80 -14 149.5t-44 129.5 t-84 95t-127 35q-74 0 -128 -35t-83.5 -95t-43 -129.5t-13.5 -149.5zM397 1163l281 316q40 -12 75 -44.5t50 -70.5l-334 -266q-23 6 -43 24.5t-29 40.5z" />
<glyph unicode="&#xf4;" horiz-adv-x="1062" d="M106 502q0 270 144 418q107 110 280 110q176 0 283 -110q143 -147 143 -418t-143 -418q-109 -109 -283 -109q-171 0 -280 109q-144 148 -144 418zM250 1174l217 270q51 15 133 2l207 -260q-27 -55 -82 -74l-194 193l-207 -203q-50 20 -74 72zM264 502q0 -81 13.5 -150 t43 -129t83.5 -94.5t128 -34.5q73 0 127 34.5t84 94t44 129t14 150.5q0 80 -14 149.5t-44 129.5t-84 95t-127 35q-74 0 -128 -35t-83.5 -95t-43 -129.5t-13.5 -149.5z" />
<glyph unicode="&#xf5;" horiz-adv-x="1062" d="M106 502q0 270 144 418q107 110 280 110q176 0 283 -110q143 -147 143 -418t-143 -418q-109 -109 -283 -109q-171 0 -280 109q-144 148 -144 418zM182 1212l19 41q28 63 76.5 98t107.5 35q53 0 111 -28l125 -60q36 -18 69 -18q44 0 84 53l27 31q25 -2 47 -15.5t31 -33.5 l-19 -41q-30 -65 -79 -99t-105 -34q-53 0 -111 28l-125 62q-40 18 -69 18q-42 0 -84 -53l-27 -33q-26 2 -48.5 15t-29.5 34zM264 502q0 -81 13.5 -150t43 -129t83.5 -94.5t128 -34.5q73 0 127 34.5t84 94t44 129t14 150.5q0 80 -14 149.5t-44 129.5t-84 95t-127 35 q-74 0 -128 -35t-83.5 -95t-43 -129.5t-13.5 -149.5z" />
<glyph unicode="&#xf6;" horiz-adv-x="1062" d="M106 502q0 270 144 418q107 110 280 110q176 0 283 -110q143 -147 143 -418t-143 -418q-109 -109 -283 -109q-171 0 -280 109q-144 148 -144 418zM254 1241q0 35 14 70q29 18 80 18q50 0 82 -18q15 -38 15 -70q0 -36 -15 -70q-29 -18 -82 -18q-20 0 -45 5.5t-35 12.5 q-14 35 -14 70zM264 502q0 -81 13.5 -150t43 -129t83.5 -94.5t128 -34.5q73 0 127 34.5t84 94t44 129t14 150.5q0 80 -14 149.5t-44 129.5t-84 95t-127 35q-74 0 -128 -35t-83.5 -95t-43 -129.5t-13.5 -149.5zM617 1241q0 35 14 70q32 18 82 18q51 0 80 -18q14 -35 14 -70 q0 -39 -14 -70q-25 -18 -80 -18q-53 0 -82 18q-14 35 -14 70z" />
<glyph unicode="&#xf7;" d="M113 594q0 43 8 74h844q8 -31 8 -74q0 -44 -8 -68h-844q-8 24 -8 68zM436 227q0 42 17 76q30 23 90 23q24 0 51.5 -6.5t38.5 -16.5q14 -28 14 -76q0 -45 -14 -73q-10 -10 -38 -16.5t-52 -6.5q-60 0 -90 23q-17 34 -17 73zM436 958q0 40 17 74q30 23 90 23q24 0 51.5 -6.5 t38.5 -16.5q14 -28 14 -74q0 -47 -14 -75q-10 -9 -39 -16t-51 -7q-60 0 -90 23q-17 34 -17 75z" />
<glyph unicode="&#xf8;" horiz-adv-x="1062" d="M106 502q0 274 144 418q107 110 280 110q109 0 191 -43l76 129q25 -2 56 -19t44 -38l-82 -144q141 -141 141 -413q0 -279 -143 -418q-109 -109 -283 -109q-112 0 -194 43l-74 -127q-26 1 -57 18.5t-45 37.5l82 145q-136 141 -136 410zM256 502q0 -171 57 -279l346 658 q-60 34 -127 34q-75 0 -130.5 -35.5t-86 -96.5t-45 -131t-14.5 -150zM397 129q60 -37 135 -37t130.5 35t86 95.5t44.5 130t14 149.5q0 179 -62 286z" />
<glyph unicode="&#xf9;" horiz-adv-x="1118" d="M145 985q37 33 97 33q42 0 59.5 -24t17.5 -76v-568q0 -126 32.5 -178.5t119.5 -52.5q77 0 165 44t148 113v728q27 8 74 8q51 0 78 -8v-721q0 -78 11 -132.5t46 -87.5q-8 -23 -27 -45t-42 -32q-102 36 -129 151q-70 -70 -167.5 -112.5t-195.5 -42.5q-137 0 -199.5 88 t-62.5 231v510q0 109 -25 174zM295 1364q15 38 50 70.5t75 44.5l281 -316q-9 -22 -29 -40.5t-43 -24.5z" />
<glyph unicode="&#xfa;" horiz-adv-x="1118" d="M145 985q37 33 97 33q42 0 59.5 -24t17.5 -76v-568q0 -126 32.5 -178.5t119.5 -52.5q77 0 165 44t148 113v728q27 8 74 8q51 0 78 -8v-721q0 -78 11 -132.5t46 -87.5q-8 -23 -27 -45t-42 -32q-102 36 -129 151q-70 -70 -167.5 -112.5t-195.5 -42.5q-137 0 -199.5 88 t-62.5 231v510q0 109 -25 174zM418 1163l280 316q40 -12 75 -44.5t50 -70.5l-334 -266q-23 6 -42.5 24.5t-28.5 40.5z" />
<glyph unicode="&#xfb;" horiz-adv-x="1118" d="M145 985q37 33 97 33q42 0 59.5 -24t17.5 -76v-568q0 -126 32.5 -178.5t119.5 -52.5q77 0 165 44t148 113v728q27 8 74 8q51 0 78 -8v-721q0 -78 11 -132.5t46 -87.5q-8 -23 -27 -45t-42 -32q-102 36 -129 151q-70 -70 -167.5 -112.5t-195.5 -42.5q-137 0 -199.5 88 t-62.5 231v510q0 109 -25 174zM270 1174l217 270q51 15 133 2l207 -260q-27 -55 -82 -74l-194 193l-207 -203q-50 20 -74 72z" />
<glyph unicode="&#xfc;" horiz-adv-x="1118" d="M145 985q37 33 97 33q42 0 59.5 -24t17.5 -76v-568q0 -126 32.5 -178.5t119.5 -52.5q77 0 165 44t148 113v728q27 8 74 8q51 0 78 -8v-721q0 -78 11 -132.5t46 -87.5q-8 -23 -27 -45t-42 -32q-102 36 -129 151q-70 -70 -167.5 -112.5t-195.5 -42.5q-137 0 -199.5 88 t-62.5 231v510q0 109 -25 174zM274 1241q0 32 15 70q29 18 80 18q50 0 82 -18q14 -35 14 -70q0 -39 -14 -70q-29 -18 -82 -18q-20 0 -45 5.5t-35 12.5q-15 38 -15 70zM637 1241q0 35 14 70q32 18 82 18q51 0 80 -18q14 -35 14 -70q0 -39 -14 -70q-25 -18 -80 -18 q-53 0 -82 18q-14 35 -14 70z" />
<glyph unicode="&#xfd;" horiz-adv-x="925" d="M16 -420q-3 26 7.5 58t25.5 53q67 -23 135 -23q57 0 100 20.5t74 63.5t52.5 93t44.5 126l6 21q-54 3 -81.5 23.5t-45.5 76.5l-287 901q66 27 90 27q59 0 80 -72l162 -514q21 -65 56.5 -188.5t37.5 -130.5q5 -15 21 -15l249 906q27 8 70 8t76 -13l4 -6l-281 -960 q-31 -106 -58.5 -177.5t-63.5 -133.5t-78.5 -97t-99.5 -54t-130 -19q-90 0 -166 26zM327 1163l281 316q40 -12 75 -44.5t50 -70.5l-334 -266q-23 6 -43 24.5t-29 40.5z" />
<glyph unicode="&#xfe;" horiz-adv-x="1075" d="M180 -428v1921l13 12h53q50 0 66 -23.5t16 -78.5v-518q56 62 133 99.5t166 37.5q164 0 254 -139t90 -369q0 -109 -23 -199.5t-60.5 -150.5t-88 -101.5t-103.5 -60t-108 -18.5q-132 0 -260 84v-406q0 -55 -16 -78.5t-66 -23.5h-53zM328 207q133 -92 245 -92 q102 0 173 99.5t71 297.5q0 190 -63 283.5t-158 93.5q-72 0 -145 -43.5t-123 -120.5v-518z" />
<glyph unicode="&#xff;" horiz-adv-x="925" d="M16 -420q-3 26 7.5 58t25.5 53q67 -23 135 -23q57 0 100 20.5t74 63.5t52.5 93t44.5 126l6 21q-54 3 -81.5 23.5t-45.5 76.5l-287 901q66 27 90 27q59 0 80 -72l162 -514q21 -65 56.5 -188.5t37.5 -130.5q5 -15 21 -15l249 906q27 8 70 8t76 -13l4 -6l-281 -960 q-31 -106 -58.5 -177.5t-63.5 -133.5t-78.5 -97t-99.5 -54t-130 -19q-90 0 -166 26zM184 1241q0 32 15 70q29 18 80 18q49 0 81 -18q15 -38 15 -70q0 -36 -15 -70q-29 -18 -81 -18q-20 0 -45 5.5t-35 12.5q-15 38 -15 70zM547 1241q0 35 14 70q32 18 82 18q51 0 80 -18 q14 -35 14 -70q0 -39 -14 -70q-25 -18 -80 -18q-53 0 -82 18q-14 35 -14 70z" />
<glyph unicode="&#x152;" horiz-adv-x="1812" d="M117 700q0 183 53 344.5t164 260.5q131 118 336 118q39 0 81.5 -4t96 -11t72.5 -9h747q4 -25 4 -64q0 -40 -10 -71h-522q-10 0 -34.5 -0.5t-47.5 -0.5t-43 1q0 -26 1 -63t1 -64v-363q24 0 66 1t57 1h424q6 -37 6 -67q0 -33 -6 -68h-424q-78 0 -123 2v-432q0 -15 -1 -39 t-1 -39q70 4 127 4h561q0 -42 -6 -65q-12 -72 -101 -72h-675q-19 -2 -71 -9.5t-95 -11.5t-84 -4q-204 0 -336 119q-111 99 -164 260t-53 346zM283 700q0 -86 10 -164.5t36.5 -159t68 -138.5t111 -95t159.5 -37q93 0 196 21v1143q-112 22 -194 22q-76 0 -137 -25t-102.5 -70 t-71 -101t-46 -125t-23.5 -134.5t-7 -136.5z" />
<glyph unicode="&#x153;" horiz-adv-x="1728" d="M106 502q0 274 144 418q107 110 280 110q252 0 351 -213q49 101 134 157t202 56q96 0 172 -34t124 -94t73.5 -139t25.5 -171q0 -70 -8 -135h-637q10 -348 264 -348q139 0 297 86q21 -18 36.5 -48.5t18.5 -56.5q-73 -51 -172.5 -83t-200.5 -32q-241 0 -333 203 q-101 -203 -347 -203q-171 0 -280 109q-144 144 -144 418zM264 502q0 -63 8 -119.5t27.5 -110.5t49.5 -92.5t77 -62t106 -23.5q73 0 127 34.5t84 94.5t44 129.5t14 149.5t-14 149.5t-44 129.5t-84 95t-127 35q-74 0 -128 -35t-83.5 -95t-43 -129.5t-13.5 -149.5zM967 573 h489v23q0 142 -58 229.5t-181 87.5q-112 0 -176.5 -91t-73.5 -249z" />
<glyph unicode="&#x178;" horiz-adv-x="985" d="M31 1380q53 33 102 33q59 0 86 -76l197 -475q27 -61 84 -235h10q9 31 26 79t36 98t22 58l213 537q31 8 70 8q37 0 75 -10l6 -13l-385 -929v-455q-35 -6 -79 -6q-48 0 -78 6v461zM199 1602q0 32 12 73q34 17 86 17q57 0 84 -17q14 -38 14 -73q0 -38 -14 -76 q-23 -17 -84 -17q-58 0 -86 17q-12 40 -12 76zM602 1602q0 37 16 73q27 17 84 17q52 0 86 -17q13 -44 13 -73q0 -32 -13 -76q-28 -17 -86 -17q-61 0 -84 17q-16 36 -16 76z" />
<glyph unicode="&#x2c6;" horiz-adv-x="815" d="M127 1174l217 270q51 15 133 2l207 -260q-27 -55 -82 -74l-194 193l-207 -203q-50 20 -74 72z" />
<glyph unicode="&#x2dc;" horiz-adv-x="815" d="M59 1212l19 41q28 63 76.5 98t107.5 35q53 0 111 -28l125 -60q36 -18 69 -18q44 0 84 53l27 31q25 -2 47 -15.5t31 -33.5l-19 -41q-30 -65 -79 -99t-105 -34q-53 0 -111 28l-125 62q-40 18 -69 18q-42 0 -84 -53l-27 -33q-26 2 -48.5 15t-29.5 34z" />
<glyph unicode="&#x2000;" horiz-adv-x="903" />
<glyph unicode="&#x2001;" horiz-adv-x="1806" />
<glyph unicode="&#x2002;" horiz-adv-x="903" />
<glyph unicode="&#x2003;" horiz-adv-x="1806" />
<glyph unicode="&#x2004;" horiz-adv-x="602" />
<glyph unicode="&#x2005;" horiz-adv-x="451" />
<glyph unicode="&#x2006;" horiz-adv-x="301" />
<glyph unicode="&#x2007;" horiz-adv-x="301" />
<glyph unicode="&#x2008;" horiz-adv-x="225" />
<glyph unicode="&#x2009;" horiz-adv-x="361" />
<glyph unicode="&#x200a;" horiz-adv-x="100" />
<glyph unicode="&#x2010;" horiz-adv-x="686" d="M100 541q0 39 9 73h471q6 -35 6 -73q0 -41 -6 -68h-471q-9 27 -9 68z" />
<glyph unicode="&#x2011;" horiz-adv-x="686" d="M100 541q0 39 9 73h471q6 -35 6 -73q0 -41 -6 -68h-471q-9 27 -9 68z" />
<glyph unicode="&#x2012;" horiz-adv-x="686" d="M100 541q0 39 9 73h471q6 -35 6 -73q0 -41 -6 -68h-471q-9 27 -9 68z" />
<glyph unicode="&#x2013;" horiz-adv-x="1058" d="M131 539q0 35 6 69h785q8 -31 8 -69q0 -40 -8 -64h-785q-6 27 -6 64z" />
<glyph unicode="&#x2014;" horiz-adv-x="1615" d="M162 539q0 35 6 69h1280q6 -35 6 -69q0 -37 -6 -64h-1280q-6 27 -6 64z" />
<glyph unicode="&#x2018;" horiz-adv-x="421" d="M92 1198q0 112 58 198.5t169 133.5q22 -10 35.5 -33.5t12.5 -46.5q-55 -31 -90.5 -76.5t-36.5 -97.5q63 -5 84 -21q16 -32 16 -86q0 -70 -16 -92q-14 -8 -48 -15t-61 -7q-28 0 -59.5 6t-42.5 16q-21 47 -21 121z" />
<glyph unicode="&#x2019;" horiz-adv-x="421" d="M55 1130q54 30 89 77t36 98q-63 5 -82 22q-16 28 -16 84q0 70 16 92q12 8 46.5 15.5t60.5 7.5q28 0 59.5 -6.5t44.5 -16.5q21 -44 21 -121q0 -112 -59 -198t-171 -133q-20 10 -33.5 33.5t-11.5 45.5z" />
<glyph unicode="&#x201a;" horiz-adv-x="423" d="M70 -193q55 29 90.5 76t36.5 99q-64 5 -84 20q-17 34 -17 86q0 68 17 92q52 23 108 23q26 0 58.5 -7t44.5 -16q20 -45 20 -121q0 -112 -58 -198t-169 -133q-21 9 -35 32t-12 47z" />
<glyph unicode="&#x201c;" horiz-adv-x="772" d="M92 1198q0 112 58 198.5t169 133.5q22 -10 35.5 -33.5t12.5 -46.5q-55 -31 -90.5 -76.5t-36.5 -97.5q63 -5 84 -21q16 -32 16 -86q0 -70 -16 -92q-14 -8 -48 -15t-61 -7q-28 0 -59.5 6t-42.5 16q-21 47 -21 121zM442 1198q0 112 58.5 198.5t169.5 133.5 q22 -10 35.5 -33.5t11.5 -46.5q-55 -31 -90.5 -76.5t-36.5 -97.5q63 -5 84 -21q16 -32 16 -86q0 -70 -16 -92q-14 -8 -48 -15t-61 -7q-28 0 -59.5 6t-42.5 16q-21 47 -21 121z" />
<glyph unicode="&#x201d;" horiz-adv-x="772" d="M55 1130q54 30 89 77t36 98q-63 5 -82 22q-16 28 -16 84q0 70 16 92q12 8 46.5 15.5t60.5 7.5q28 0 59.5 -6.5t44.5 -16.5q21 -44 21 -121q0 -112 -59 -198t-171 -133q-20 10 -33.5 33.5t-11.5 45.5zM408 1130q54 30 88.5 77t35.5 98q-62 5 -81 22q-17 30 -17 84 q0 68 17 92q12 8 46.5 15.5t59.5 7.5q28 0 60 -6.5t45 -16.5q20 -42 20 -121q0 -112 -58.5 -198t-170.5 -133q-20 10 -33.5 33.5t-11.5 45.5z" />
<glyph unicode="&#x201e;" horiz-adv-x="774" d="M70 -193q55 29 90.5 76t36.5 99q-64 5 -84 20q-17 34 -17 86q0 68 17 92q52 23 108 23q26 0 58.5 -7t44.5 -16q20 -45 20 -121q0 -112 -58 -198t-169 -133q-21 9 -35 32t-12 47zM422 -193q55 29 90.5 76t36.5 99q-64 5 -84 20q-16 32 -16 86q0 70 16 92q52 23 108 23 q26 0 58.5 -7t44.5 -16q20 -45 20 -121q0 -112 -58 -198t-169 -133q-21 9 -35 32t-12 47z" />
<glyph unicode="&#x2022;" horiz-adv-x="897" d="M242 555q0 38 7.5 90t18.5 72q29 15 83.5 28t97.5 13q42 0 99 -13.5t81 -27.5q12 -20 20 -71.5t8 -90.5q0 -37 -8 -88t-20 -74q-20 -13 -77.5 -25t-102.5 -12q-44 0 -99 11.5t-82 25.5q-11 23 -18.5 74t-7.5 88z" />
<glyph unicode="&#x202f;" horiz-adv-x="361" />
<glyph unicode="&#x2039;" horiz-adv-x="659" d="M80 522q0 31 8 53l389 373q28 -11 53 -34.5t35 -49.5l-301 -340l314 -352q-10 -26 -35.5 -49.5t-53.5 -34.5l-401 381q-8 22 -8 53z" />
<glyph unicode="&#x203a;" horiz-adv-x="659" d="M80 864q12 26 37 50t53 34l399 -381q9 -20 9 -52t-9 -54l-387 -373q-28 10 -53 34t-37 50l303 340z" />
<glyph unicode="&#x205f;" horiz-adv-x="451" />
<glyph unicode="&#x20ac;" horiz-adv-x="1165" d="M61 512q0 19 7 59h145q-2 31 -2 93q0 55 2 84h-145q-7 35 -7 57q0 19 7 59h155q69 488 461 488q105 0 214.5 -40.5t203.5 -117.5q-23 -66 -80 -102q-77 58 -162.5 90t-157.5 32q-266 0 -319 -350h469q6 -35 6 -59q0 -27 -6 -57h-479q-2 -27 -2 -84q0 -64 2 -93h479 q6 -34 6 -59q0 -27 -6 -57h-467q56 -342 317 -342q71 0 157 32.5t163 90.5q59 -40 80 -105q-94 -77 -203 -116.5t-215 -39.5q-390 0 -459 480h-157q-7 35 -7 57z" />
<glyph unicode="&#xe000;" horiz-adv-x="1024" d="M0 0v1024h1024v-1024h-1024z" />
</font>
</defs>
</svg>
